<?xml version="1.0" encoding="utf-8"?>
<!-- Generator: Adobe Illustrator 16.0.0, SVG Export Plug-In . SVG Version: 6.00 Build 0)  -->
<!DOCTYPE svg PUBLIC "-//W3C//DTD SVG 1.1//EN" "http://www.w3.org/Graphics/SVG/1.1/DTD/svg11.dtd">
<svg version="1.1" id="Layer_1" xmlns="http://www.w3.org/2000/svg" xmlns:xlink="http://www.w3.org/1999/xlink" x="0px" y="0px"
	 width="936px" height="1440px" viewBox="0 0 936 1440" enable-background="new 0 0 936 1440" xml:space="preserve">
<g>
	<path d="M124.57,411.697c12.76-9.46,19.36-21.34,42.021-21.34c31.68,0,66,19.36,85.36,7.7c-9.9,13.86-3.08,31.24-17.16,35.42
		c-16.06,4.62-33-1.32-58.08-14.08c-15.18-7.92-33.44-16.06-49.061-4.18c-10.56,7.92-13.86,31.02,2.86,35.86
		c-12.98,7.48-24.42,9.9-31.68,0C87.83,436.337,107.41,424.458,124.57,411.697z M164.39,556.018c-21.56,0-42.24-38.28-57.64-19.8
		c3.3-13.64,7.7-26.4,20.24-28.6c12.76-2.2,22.22,7.92,43.121,22.22c7.26,5.061,15.62,6.38,20.46,1.76
		c6.16-5.94,3.3-12.54-3.08-20.24c-18.7-23.1-38.94-29.7-49.94-56.76c-6.6-16.28,11-22.22,25.521-33.88
		c-9.828,18.253,7.764,33.456,25.265,48.646c15.937-20.621,37.189-18.88,44.471-8.173c3.74,5.5-8.14,13.86-10.56,26.62
		c-10.003-17.875-22.885-29.161-31.482-16.339c9.078,7.911,17.783,15.853,22.242,24.257c7.04,13.2-6.38,27.5-20.24,40.48
		c-9.24,8.58-13.2,19.801-28.38,19.801L164.39,556.018z"/>
</g>
<g>
	<path d="M282.201,590.764c-14.52-1.32-17.38,16.28-39.16,21.12c27.94,8.36,43.12,30.36,30.36,49.28
		c-11.35,16.81-72.9,12.84-92.15-24.36c16.88-7.98,35.01-21.85,30.99-43.39l-3.61-19.17c3.71-7.15,7.81-12.73,12.19-12.73
		c9.46,0,19.14,15.4,33.66,15.4c17.38,0,20.68-18.48,31.9-29.26c-19.36,9.24-30.58-11.88-50.6-11.88
		c-12.71,0-21.82,14.38-28.45,31.52l-0.59-3.14c-1.76-8.8-0.88-15.18,6.38-22.44l-12.32,7.26c-0.33,0.22-0.65,0.45-0.97,0.67
		c-28.71,16.34-67.43,50.77-50.07,95.9c16.5,42.68,47.3,55.89,90.42,55.89c16.94,0,24.64-15.41,33.22-30.37
		C305.521,636.524,304.201,592.744,282.201,590.764z M185.481,565.094c-9.56,17.87-0.27,37.19,1.24,50.76
		c0.64,6.39-2.73,12.33-7.26,17.22C167.701,607.145,171.711,583.824,185.481,565.094z"/>
</g>
<path d="M687.236,654.763c-16.1-6.652-28.707-19.131-44.271-26.688c-1.625-0.796-3.072-2.034-4.49-3.194
	c-1.072-0.884-2.951-1.66-2.289-3.362c0.752-1.93,2.586-0.749,3.871-0.48c6.996,1.506,13.971,3.136,21.926,4.943
	c-7.703-9.772-12.578-20.631-19.625-30.089c-5.875-7.883-9.406-17.125-15.219-24.998c-0.631-0.867-1.424-2.049-0.1-2.838
	c1.592-0.944,2.203,0.719,3.037,1.575c13.945,14.402,28.875,27.748,44.674,42.06c-2.41-8.035-4.777-14.861-8.031-21.374
	c-8.158-16.278-12.812-33.679-16.297-51.457c-0.201-1.046-0.85-2.457,0.564-2.846c1.898-0.52,2.18,1.515,2.994,2.61
	c12.477,16.72,20.242,35.877,28.152,54.95c1.025,2.459,1.559,5.199,4.225,7.979c-5.717-24.656-4.547-49.179-8.639-73.145
	c-1.609-9.401-1.492-19.09-2.104-28.659c-0.072-1.204-0.398-2.939,1.078-3.383c1.725-0.521,1.986,1.211,2.334,2.4
	c3.721,12.722,9.652,24.615,13.299,37.446c4.609,16.231,4.422,32.808,6.184,49.25c0.213,1.903,0.439,3.8,0.941,5.666
	c0.316-25.569,3.162-51.072,0.385-76.683c-0.953-8.877,0.588-18.034,1.113-27.041c0.1-1.72,0.014-4.314,2.352-4.253
	c1.906,0.046,1.818,2.51,1.926,4.083c1.354,18.608,9.281,35.958,11.004,54.751c0.324-2.219,0.818-4.414,0.941-6.63
	c0.711-13.103,4.398-25.839,4.9-38.972c0.078-2.005,0.629-4.054-1.318-5.575c-3.256-2.537,0.541-5.092,0.391-7.801
	c-0.242-4.399-3.617-9.091-0.125-13.741c0.775-1.047,1.377-3.598-1.006-4.794c-4.809-2.41-4.152-6.323-2.883-10.469
	c0.443-1.468,2.424-3.589-1.137-4c-2.062-0.239-4.479-1.481-4.598,2.349c-0.068,2.33-1.451,4.216-3.242,5.59
	c-3.318,2.537-6.873,1.918-9.545-0.71c-2.938-2.9-0.91-5.821,1.455-8.087c1.297-1.238,2.967-2.719,4.588-2.883
	c7.703-0.764,8.02-7.51,10.414-12.491c0.938-1.943,0.119-3.943-1.84-5.982c-0.41,1.577-0.678,2.853-1.07,4.094
	c-1.422,4.616-5.299,6.732-9.863,5.399c-1.068-0.303-2.057-0.811-3.123-1.081c-10.225-2.617-11.754-5.658-7.367-15.073
	c1.084-2.333,2.941-3.714,5.73-3.473c2.244,0.192,4.434,0.127,5.566-2.578c-2.715-0.907-5.086,0.954-7.629,0.572
	c-2.801-0.419-5.355-1.481-4.867-4.75c0.521-3.488,3.469-2.974,5.645-1.969c3.602,1.627,3.912-0.045,4.617-3.08
	c1.141-4.899,6.307-7.552,7.789-12.538c0.506-1.732,0.951-2.232-0.74-3.739c-3.332-2.966-5.062-7.328-8.682-10.361
	c-2.184-1.83-2.494-6.627,1.23-7.168c5.625-0.818,10.016-5.554,16.057-4.125c-1.141-8.155-0.588-8.889,7.436-8.75
	c2.518,0.048,4.088-0.979,5.557-2.837c1.818-2.331-0.352-3.094-1.359-4.476c-1.648-2.276-0.723-4.359,1.348-5.659
	c2.162-1.36,2.734-2.454,1.879-5.202c-1.492-4.882,1.012-7.321,5.811-5.72c5.146,1.708,6.697,0,6.559-4.982
	c-0.078-3.311,0.475-6.634,2.033-9.657c0.68-1.329,1.631-2.535,3.34-2.526c1.758,0.009,2.68,1.201,3.039,2.714
	c1.006,4.182,6.975,6.77,3.902,12.296c-0.381,0.67,0.254,1.352,1.107,1.519c0.541,0.112,1.082,0.215,1.613,0.382
	c6.627,2.072,2.555,9.072,5.412,12.244c3.762,4.16,6.229,7.297,0.703,12.003c5.322,2.662,5.949,6.078,3.195,11.313
	c-1.527,2.913-1.889,7.016,2.758,9.545c2.502,1.361,4.008,4.672,5.777,7.24c2.334,3.433-1.502,5.209-2.279,7.814
	c-1.57,5.303-3.521,10.228-10.617,11.185c2.34,2.522,3.104,5.394,7.072,2.548c3.715-2.657,6.535-0.539,5.592,4.17
	c-1.551,7.751-3.744,15.352-5.738,22.997c-0.475,1.802-2.055,2.892-3.723,2.817c-3.475-0.172-4.59,2.471-4.088,4.538
	c1.635,6.767-3.342,10.328-6.822,14.083c-2.271,2.441-3.57,4.687-4.15,7.748c-0.238,1.248-0.879,2.42-1.363,3.624
	c-3.08,7.679-4.506,8.099-9.629,1.794c-2.469-3.025-4.434-3.976-7.678-1.338c2.176,1.603,2.436,3.182,2.459,6.105
	c0.053,5.502-4.277,9.65-3.299,15.079c0.305,1.763-1.381,1.75-2.504,2.318c-1.793,0.898-1.375,2.88-1.557,4.442
	c-2.354,20.718-4.723,41.435-8.223,62c-0.082,0.456,0.119,0.954,0.408,3.086c7.217-16.922,17.395-30.496,25.314-45.394
	c0.967-1.81,1.648-5.445,3.887-4.551c2.721,1.086,0.824,4.332,0.086,6.378c-6.537,18.402-13.275,36.74-19.877,55.132
	c-1.842,5.119-3.471,10.325-4.844,15.657c12.875-17.767,28.393-33.42,39.697-52.249c1.943-3.24,5.414-4.948,7.092-8.299
	c0.309-0.608,1.123-1.053,1.877-0.466c1.158,0.896,0.578,1.981,0.158,2.984c-2.076,5.123-3.943,10.352-6.32,15.334
	c-8.908,18.657-18.904,36.696-31.465,53.21c-0.83,1.096-2.23,1.996-1.059,4.887c0.273-0.646,0.439-1.388,0.85-1.924
	c10.895-14.065,26.027-23.279,39.488-34.386c4.814-3.979,10.084-7.399,14.387-12.019c0.84-0.893,1.965-2.293,3.199-1.192
	c1.162,1.035,0.096,2.37-0.648,3.431c-6.801,9.657-14.082,18.937-22.137,27.587c-7.727,8.312-14.83,17.118-22.08,26.16
	c2.008,0.602,2.797-0.653,3.713-1.334c9.754-7.182,20.582-12.189,31.971-16.057c6.98-2.37,13.961-4.699,20.459-8.237
	c1.512-0.834,2.998-1.406,4.688-0.585l-0.324,2.195c-20.207,13.753-39.316,28.982-59.908,43.864
	c15.094-1.476,29.178-2.501,43.096-5.038c1.377-0.25,3.225-1.397,3.977,0.343c0.953,2.181-1.314,2.743-2.738,3.308
	c-13.111,5.284-26.16,10.78-40.207,13.264c-11.264,1.981-22.779,0.515-34,2.825c-2.654,0.538-5.99,0.297-3.74,4.807
	c0.777,1.566-0.17,3.234-2.018,2.914c-4.164-0.717-7.693,1.676-11.627,1.92L687.236,654.763z M695.002,634.977
	c-14.893-27.967-26.658-55.812-38.604-83.554C659.729,571.355,684.641,625.571,695.002,634.977 M738.273,576.855
	c-13.1,15.459-21.977,32.919-25.555,53.143C723.061,613.045,729.504,594.363,738.273,576.855 M694.635,425.954
	c-2.326,4.732,0.812,5.719,4.346,6.44c1.082,0.215,2.201,0.324,3.199,0.728c2.455,1.023,5.051,1.316,6.16-1.401
	c1.422-3.47,3.102-7.482,1.168-11.011c-1.477-2.694-4.4-1.405-6.797-0.08c-0.896,0.49-2.172,0.608-3.223,0.455
	C695.611,420.515,693.895,421.989,694.635,425.954 M710.918,386.437c1.898-1.165,3.975-2.667,6.248-3.76
	c3.186-1.524,5.299-3.392,3.326-7.151c-1.764-3.365-7.299-5.333-9.727-3.141c-1.992,1.804-4.025,2.296-6.469,2.349
	c-1.02,0.019-2.352-0.145-2.67,1.309c-0.279,1.298,0.592,2.12,1.59,2.63c2.588,1.324,4.279,3.38,5.35,6.039
	C708.914,385.57,709.484,386.314,710.918,386.437 M742.432,376.727c0.947,3.044,1.789,6.919,3.426,10.427
	c0.697,1.515,2.721,1.151,4.086-0.512c6.002-7.297,4.818-15.604-3.025-20.63c-2.314-1.478-3.908-0.526-3.459,1.806
	C744.008,370.715,743.537,373.259,742.432,376.727 M720.752,396.814c-0.012-1.252,0.557-3.404-2.068-3.83
	c-3.004-0.474-6.619-1.893-8.398,1.709c-1.66,3.378-3.764,6.215-6.338,8.854c-1.158,1.185-2.346,3.165-0.84,4.331
	c1.951,1.504,4.586,2.578,7.111,2.174c2.504-0.398,3.264-3.045,3.479-5.104c0.248-2.344-1.346-5.119,3.35-3.622
	C718.641,401.837,720.65,399.792,720.752,396.814 M734.268,338.206c-0.068,3.378,4.252,5.587,1.281,8.184
	c-4.344,3.806-0.9,6.184,1.387,8.175c3.018,2.623,5.668,0.14,7.422-2.184c2.26-2.983,2.492-6.854,2.971-10.455
	c0.186-1.368-0.969-3.321-2.637-2.574C741.033,340.968,737.949,338.562,734.268,338.206 M680.893,626.206
	c-8.697-14.316-21.516-24.648-34.379-34.931C654.932,605.841,668.863,615.071,680.893,626.206 M732.783,390.048
	c0.352-1.465,0.561-2.168,0.699-2.89c0.426-2.35,1.082-5.819-1.355-6.258c-2.697-0.477-6.062,0.852-8.631,2.289
	c-2.057,1.157-1.773,3.942-0.617,5.96c1.324,2.292,2.035,4.583,1.982,7.254c-0.023,2.029,0.676,2.761,3.104,1.771
	C732.26,396.45,732.475,392.907,732.783,390.048 M714.074,588.521c6.836-19.333,18.574-36.38,25.021-55.762
	C727.488,549.913,718.379,568.194,714.074,588.521 M755.039,423.583c0.73-4.144-1.717-6.593-4.479-7.621
	c-3.533-1.318-2.598,2.515-3.137,4.218c-0.875,2.767-2.914,3.516-5.344,3.958c-1.482,0.266-3.656-0.481-3.836,1.961
	c-0.137,1.795,0.168,3.566,2.035,4.753c1.928,1.219,3.564,1.549,5.41-0.092c1.326-1.176,2.504-2.762,4.604-2.606
	C753.836,428.416,754.004,425.359,755.039,423.583 M709.748,623.479c5.551-18.989,9.137-38.535,16.65-56.938
	C716.787,584.337,710.584,603.143,709.748,623.479 M764.77,401.965c5.939-1.006,4.715-6.947,7.68-9.706
	c1.303-1.229,2.701-2.959,0.531-4.658c-1.855-1.434-1.861-5.066-5.568-4.368c-2.771,0.513-3.334,2.632-4.088,4.643
	C761.531,392.606,764.346,396.828,764.77,401.965 M749.59,356.07c4.148-1.931,7.908-1.112,11.699-0.546
	c1.625,0.247,3.777,0.37,3.35-2.154c-0.359-2.054-3.705-4.054-4.047-3.54c-3.217,4.755-3.322-0.771-3.877-1.393
	c-1.582-1.742-0.068-2.657,1.645-3.502c2.324-1.151,2.262-3.306,0.797-4.989c-1.762-2.002-2.732,0.38-3.943,1.21
	C749.953,344.772,751.436,350.936,749.59,356.07 M774.09,411.661c-10.502,4.805-12.686,8.63-11.744,18.684
	c0.174,1.889,0.545,3.484,2.711,3.182c2.248-0.315,2.006-2.343,1.748-3.931c-0.129-0.776-2.273-1.326-0.469-2.359
	C772.475,423.743,771.715,416.943,774.09,411.661 M727.092,421.385c2.139-0.484,5.707,1.13,5.355-1.407
	c-0.395-2.857,0.332-4.227,1.854-6.189c1.082-1.375,0.158-3.494-1.15-4.461c-2.582-1.92-5.641-1.193-8.34-0.178
	c-1.521,0.575-3.988,1.883-2.543,4.007C724.086,415.82,722.693,420.577,727.092,421.385 M759.094,399.024
	c-0.686,0.383-1.982,0.701-2.133,1.291c-0.688,2.796-2.053,4.846-4.162,6.948c-1.92,1.928,3.58,9.731,6.576,9.882
	c2.385,0.124,2.848-1.985,4.074-3.192c1.332-1.329,1.049-2.799-0.33-3.736c-2.742-1.872-2.59-4.503-2.506-7.308
	C760.658,401.61,761.07,399.904,759.094,399.024 M745.494,629.019c7.545-2.578,34.049-21.729,39.23-28.001
	C770.545,609.225,757.576,618.517,745.494,629.019 M743.775,411.785c-0.111-4.107,1.164-6.75,3.674-8.842
	c1.465-1.237,1.012-3.312-0.4-3.641c-4.127-0.962-2.201-2.155-0.725-4.068c1.186-1.544,0.512-3.103-1.578-3.757
	c-2.252-0.702-4.369-1.184-5.445,1.7c-0.713,1.936-0.168,2.291,1.977,2.308c1.965,0.022,2.289,1.659,0.396,2.785
	c-0.857,0.503-2.314,0.16-1.832,1.925C740.82,403.792,740.252,407.879,743.775,411.785 M732.895,438.438
	c-1.365,5.059-5.158,8.527-3.555,13.531c0.643,1.99,1.426,3.84,3.898,3.938c2.768,0.108,2.807-2.136,3.549-3.996
	C738.826,446.822,735.547,443.33,732.895,438.438 M749.127,462.907c0.457-3.708-1.771-5.843-4.26-7.798
	c-1.373-1.082-2.658-0.795-3.818,0.511c-1.887,2.135-2.445,4.57-1.172,7.089c0.799,1.585,2.289,2.813,3.236,4.34
	c2.1,3.375,3.635,3.036,4.842-0.57C748.352,465.269,748.748,464.053,749.127,462.907 M731.193,360.811
	c-0.254,0.681-0.553,1.338-0.766,2.025c-1.229,3.958-1.131,3.843-4.447,1.322c-1.467-1.111-3.814-1.65-5.199-0.684
	c-1.924,1.331,0.232,2.802,0.871,4.162c0.543,1.145,1.287,2.223,1.676,3.417c0.812,2.491,3.004,2.515,4.436,1.668
	c2.932-1.73,6.307-3.606,7.953-6.357C737.172,363.933,732.254,363.25,731.193,360.811 M753.492,590.122
	c-9.213,5.81-25.195,24.621-27.068,31.162C735.758,610.532,744.625,600.331,753.492,590.122 M752.752,454.219
	c1.619-2.618,4.816-3.511,5.783-6.136c1.672-4.515-3.064-3.517-4.701-5.218c-1.469-1.539-1.926-3.478-1.141-5.637
	c0.367-0.955,1.83-1.7,0.504-4.081C747.775,440.651,752.604,447.436,752.752,454.219 M749.328,320.396
	c-2.572,3.43-2.562,6.829-2.49,10.283c0.037,1.781,0.316,3.548,2.049,4.175c1.764,0.63,3.066-1.002,4.082-2.079
	c1.262-1.34,2.166-3.546,0.584-4.964C751.414,325.891,750.738,323.242,749.328,320.396 M716.732,413.061
	c2.822-6.733,8.488-8.296,14.277-9.315c1.93-0.338,1.441-1.136,1.1-2.106c-0.396-1.131-1.332-1.35-2.039-0.396
	c-1.648,2.218-3.557,1.695-5.885,1.288C718.812,401.596,714.758,406.841,716.732,413.061 M718.701,431.478
	c-0.08,3.724-4.205,5.667-0.178,9.002c1.74,1.441-0.166,2.782-2.197,2.758c-1.305-0.014-1.414,0.905-1.318,1.839
	c0.105,1.145,0.967,1.441,1.959,1.377c2.709-0.199,4.41-1.57,4.832-4.331C722.355,438.566,721.455,435.417,718.701,431.478
	 M723.646,432.318c-0.898-9.37-6.389-16.688-12.473-16.453c2.182,1.394,6.074,1.813,2.973,5.73
	c-0.834,1.047-0.041,1.543,0.984,1.807C719.77,424.56,721.275,428.792,723.646,432.318 M724.422,378.096
	c3.367,2.238,7.604-3.528,10.539,1.519c2.166,3.707,1.133,7.556,1.199,11.39c3.262-5.668,2.148-10.995-1.125-16.171
	c-0.682-1.069-1.441-1.713-2.471-0.42C730.523,376.985,727.469,377.302,724.422,378.096 M755.857,370.069
	c1.594-2.726,3.312-4.805,5.49-6.501c1.432-1.113,1.393-2.336,0.088-3.667c-1.432-1.453-2.756-1.679-4.107,0.001
	C754.965,362.863,752.027,365.714,755.857,370.069 M767.674,364.708c-6.781,3.27-8.854,6.935-6.277,10.589
	c0.43,0.596,0.717,1.332,1.617,1.19c0.762-0.13,1.594-0.581,1.381-1.387C763.344,371.058,766.996,368.44,767.674,364.708
	 M746.881,434.888c-1.744,2.704-6.338,2.884-5.945,6.483c0.135,1.263,3.756,3.191,5.066,2.246
	C748.828,441.564,745.836,437.889,746.881,434.888 M741.023,444.055c-2.342,7.143,5.279,4.254,6.377,8.643
	C748.938,446.09,744.883,445.356,741.023,444.055 M758.322,396.2c-2.424-2.163-4.051-4.419-6.439-1.512
	c-1.084,1.325-3.387,3.278-1.283,4.548C753.506,400.985,754.957,396.875,758.322,396.2"/>
<g>
	<g>
		<path d="M264.911,487.464l-0.15-61.98c0.15-14.31-2.83-20.27-11.77-26.82l-26.67,22.35l2.39,4.77c8.79-5.52,12.36-2.54,12.51,6.55
			v61.24c0,13.12,5.22,21.91,11.77,25.93l24.59-19.97l-3.43-4.62C267.151,499.984,264.761,495.214,264.911,487.464z"/>
	</g>
	<g>
		<path d="M322.431,503.415c0.89,7,5.81,16.09,10.72,16.09l21.75-17.8c2.92,7.81,7.95,14.33,14.71,17.8l24.43-15.94v4.02
			c-21.16,14.45-38.89,31.89-33.97,44.4c4.47,10.13,29.5,0,43.21-17.43l14.45-17.29l-0.15-58.55l9.84-7.3l-1.64-5.07
			c-7.45,2.53-13.71-1.19-19.22-4.62c-4.62-3.13-9.39-4.77-15.95-4.77l-21.15,13.41c-15.49,10.03-20.01,29.53-16.27,45.68
			c-6.04,3.57-8.26-1.47-8.12-8.73l-0.15-23.24c-0.44-23.99-19.07-27.12-36.5-27.12l-28.16,20.27l2.98,4.62
			c11.17-6.86,29.2-7.9,35.76,2.53c-20.12,5.81-34.87,14.75-37.25,30.25c-1.49,10.58,6.4,24.73,18.62,24.88L322.431,503.415z
			 M394.041,534.554c-4.17,4.17-8.49,2.83-10.73-0.15c-2.23-4.92,3.43-13.11,10.73-19.82V534.554z M375.861,454.244
			c8.65,1.34,18.18,6.25,18.18,16.39v25.48l-6.41,4.32C374.371,492.834,368.711,468.544,375.861,454.244z M321.231,471.375
			l0.15,24.29l-9.38,6.11C301.121,495.665,302.011,478.384,321.231,471.375z"/>
	</g>
	<g>
		<path d="M427.171,464.074c8.79-5.66,12.22-2.68,12.51,6.41v23.24c-0.14,12.97,4.92,21.61,11.63,25.78l24.58-19.82l-3.43-4.62
			c-7,4.92-9.38,0.15-9.23-7.45l-0.15-24.14v-2.23l0.89-0.89c6.26-5.82,11.77,3.87,15.95,10.87l12.29-10.21
			c11.221-6.1,28.029-6.63,34.32,3.36c-20.12,5.81-34.87,14.75-37.25,30.25c-1.49,10.58,6.4,24.73,18.619,24.88l22.051-16.09
			c0.9,7,5.81,16.09,10.73,16.09l24.59-20.12l-3.281-4.17c-7,5.07-9.539-0.15-9.389-7.9l-0.15-23.24
			c-0.44-23.99-19.07-27.12-36.5-27.12l-19.461,14.01c-3.92-5.36-11.449-14.01-19.26-14.01l-15.2,14.6
			c-1.49-6.25-4.91-10.28-10.72-14.6l-26.67,22.35L427.171,464.074z M528.911,495.665l-9.39,6.11
			c-10.871-6.11-9.98-23.39,9.239-30.4L528.911,495.665z"/>
	</g>
	<g>
		<path d="M573.932,470.924v22.8c0,13.11,5.069,21.76,11.77,25.78l24.439-19.97l-3.43-4.62c-7,5.07-9.38,0.3-9.23-7.3v-3.87
			c6.851-13.41,9.381-18.92,14-18.48c5.07,0.6,3.73,9.54,3.881,12.97v15.49c-0.15,13.11,5.06,21.76,11.619,25.78l24.58-19.97
			l-3.42-4.62c-7.01,5.07-9.391,0.3-9.24-7.3l-0.15-23.99c0.15-14.3-2.979-26.82-11.77-26.67c-10.58,0-19.97,12.97-29.649,29.65
			v-2.98c0.149-14.3-2.83-20.11-11.63-26.67l-26.82,22.35l2.84,5.07C570.511,458.864,573.641,461.694,573.932,470.924z"/>
	</g>
	<g>
		<path d="M707.021,441.424v-4.47h-21.301v-6.85c0.141-14.45-2.83-20.41-11.779-26.97l-26.961,22.35l2.68,4.92
			c8.941-5.67,12.221-2.83,12.512,6.55h-4.471l-14.15,12.52v4.92h18.621v39.03c0,13.41,5.068,22.06,11.77,26.08l7.57-5.9l7.738-6.03
			l0.021-0.02l1.1-0.86l3.82-2.98l10.9-8.5l-3.432-4.77c-2.199,1.69-7.889,3.6-9.719,4.29v0.01c-3.891,0.07-6.16-2.72-6.08-7.28
			l-0.141-33.07h9.09L707.021,441.424z"/>
	</g>
	<g>
		<path d="M363.001,602.834l-0.14-23.25c-0.45-23.99-19.08-27.12-36.51-27.12l-28.16,20.27l2.98,4.62
			c11.17-6.86,29.2-7.9,35.76,2.53c-20.12,5.81-34.87,14.75-37.25,30.25c-1.49,10.58,6.41,24.73,18.62,24.88l22.06-16.09
			c0.89,7,5.81,16.09,10.72,16.09l24.59-20.12l-3.28-4.17C365.391,615.794,362.861,610.574,363.001,602.834z M329.931,617.284
			c-10.88-6.11-9.99-23.39,9.23-30.4l0.15,24.29L329.931,617.284z"/>
	</g>
	<g>
		<path d="M405.591,575.864c6.26-5.82,11.78,3.87,15.95,10.87l19.37-16.09c0,0-10.73-18.18-22.05-18.18l-15.2,14.6
			c-1.49-6.25-4.92-10.28-10.73-14.6l-26.67,22.35l2.53,4.77c8.79-5.66,12.22-2.68,12.52,6.41v23.24
			c-0.15,12.97,4.91,21.61,11.62,25.78l24.58-19.82l-3.42-4.62c-7.01,4.92-9.39,0.15-9.24-7.45l-0.15-24.14v-2.23L405.591,575.864z"
			/>
	</g>
	<g>
		<path d="M502.141,602.974v-62.13c0.301-14.15-2.83-20.11-11.77-26.67l-26.82,22.2l2.53,4.77c8.94-5.37,12.37-2.53,12.521,6.7v4.62
			c-7,1.19-14.75,4.47-23.25,10.28c-12.96,8.65-22.94,23.7-22.94,38.6c0,14.3,6.11,25.18,22.94,33.67l23.4-22.65
			c0.739,11.33,5.51,18.92,11.62,22.65l24.73-19.97l-3.42-4.62C504.671,615.494,502.141,610.724,502.141,602.974z M478.602,602.974
			l-11.92,11.33c-12.07-8.79-20.56-33.68-8.49-42.77c6.85-4.32,14.9-3.72,20.411,2.69V602.974z"/>
	</g>
	<g>
		<path d="M650.912,605.237l-0.154-24.989c0.154-14.9-3.107-27.937-12.264-27.782c-11.02,0-20.798,13.503-30.887,30.886v-3.104
			c0.156-14.9-2.948-20.953-12.105-27.782l-23.478,19.564c-0.186-0.414-0.38-0.829-0.593-1.246
			c-4.511-8.86-14.91-18.32-23.521-18.32c-11.771,0-30.091,20.42-33.97,26.82c-10.431,18.78,9.979,55.28,26.819,55.73l31.591-24.14
			l-3.131-4.77c-11.619,7.6-20.41,5.22-26.97-1.34l27.101-22.47l2.449-2.032c8.169-4.66,11.145-1.563,11.439,7.591V611.6
			c0,13.658,5.277,22.66,12.262,26.851l25.454-20.798l-3.569-4.812c-7.296,5.277-9.779,0.31-9.623-7.605v-4.036
			c7.139-13.969,9.777-19.711,14.59-19.246c5.275,0.622,3.879,9.934,4.033,13.504V611.6c-0.154,13.658,5.279,22.66,12.107,26.851
			l25.609-20.798l-3.57-4.812C653.238,618.119,650.758,613.152,650.912,605.237z M538.682,597.614
			c-6.41-10.13-10.881-23.69-4.771-28.16c5.81-3.88,14.899,8.34,17.43,17.43L538.682,597.614z"/>
	</g>
</g>
<path d="M250.618,621.348c-1.621,0.563-3.242,1.125-4.858,1.705c-2.462,0.888-4.988,1.342-7.614,1.307
	c-0.853-0.012-1.706,0.195-2.634,0.313c0.115,0.167,0.128,0.209,0.149,0.217c0.221,0.069,0.443,0.144,0.669,0.193
	c2.251,0.534,4.343,1.442,6.273,2.702c0.591,0.384,1.141,0.836,1.677,1.303c0,0,0.634,0.464,0.879,0.769l0.005,0.003
	c0.652,0.795,1.287,1.625,1.934,2.431c0.385,0.478,0.468,1.509-0.006,2.126c-0.468,0.606-0.707,1.448-1.292,1.996
	c-0.262,0.246-0.451,0.569-0.806,0.585c-0.244,0.012-0.397,0.109-0.386,0.489c0.009,0.376-0.167,0.568-0.472,0.533
	c-0.103-0.016-0.208-0.009-0.306-0.011c-0.277,0.796-0.578,0.868-1.065,0.266c-0.075-0.094-0.144-0.2-0.216-0.3
	c-0.161-0.228-0.322-0.455-0.48-0.688c-0.271-0.395-0.544-0.79-0.82-1.185c-0.794-1.159-1.536-2.838-2.127-3.736
	c-1.191-1.812-2.896-3.261-4.92-4.381c0.073,0.184,0.125,0.308,0.178,0.438c0.554,1.296,1.172,2.569,1.642,3.896
	c0.278,0.776,0.239,1.666,0.481,2.462c0.469,1.527,0.414,3.02,0.002,4.538c-0.25,0.93-0.452,1.872-0.672,2.806
	c-0.225,0.954-0.86,1.284-1.733,0.909c-0.232,0.27-0.397,0.609-0.654,0.718c-0.208,0.085-0.535-0.103-0.707-0.145
	c0.002,0.022,0.004,0.045,0.006,0.067c-0.34-0.481-0.629-1.059-0.915-1.3c-0.622-0.516,0.303,1.016-0.919,1.432
	c-0.05-0.074-0.108-0.16-0.166-0.259c-0.146,0.31-0.215,0.47-0.289,0.627c-0.252,0.58-0.453,0.611-0.97,0.257
	c-0.575-0.395-0.655-1.038-0.885-1.61c-0.874-2.116-1.139-4.338-0.565-6.518c0.563-2.12,0.531-4.282,0.86-6.406
	c0.002-0.024-0.039-0.054-0.088-0.123c-0.108,0.354-0.209,0.674-0.303,1.001c-0.475,1.714-1.167,3.326-2.103,4.852
	c-1.18,1.917-2.28,3.883-3.415,5.827c-0.259,0.446-0.467,0.938-0.795,1.33c-0.647,0.772-1.288,0.706-1.858-0.128
	c-0.059-0.085-0.117-0.171-0.172-0.248c-0.922,0.293-0.934,0.282-1.254-0.649c-0.082-0.247-0.194-0.48-0.312-0.762
	c-0.498,0.303-0.817,0.188-1.054-0.279c-0.065-0.125-0.288-0.274-0.407-0.252c-0.928,0.16-1.422-0.291-1.715-1.072
	c-0.261-0.076-0.593-0.187-0.645-0.377c-0.079-0.28-0.033-0.644,0.086-0.918c0.227-0.524,0.546-1.008,0.828-1.503
	c0.947-1.663,2.428-2.805,3.927-3.901c1.845-1.349,3.766-2.594,5.651-3.883c0.271-0.188,0.535-0.384,0.8-0.575
	c-0.638,0.241-1.233,0.577-1.858,0.815c-1.621,0.623-3.285,1.138-4.875,1.817c-1.205,0.518-2.401,1.019-3.687,1.28
	c-0.265,0.051-0.539,0.119-0.759,0.255c-1.365,0.84-2.965,0.926-4.442,1.389c-0.196,0.063-0.612-0.093-0.71-0.265
	c-0.186-0.341-0.236-0.765-0.303-1.161c-0.072-0.459-0.076-0.925-0.151-1.384c-0.019-0.125-0.153-0.281-0.277-0.333
	c-0.395-0.167-0.434-0.44-0.305-0.787c0.117-0.315,0.245-0.624,0.36-0.925c-0.684-0.445-0.682-0.502-0.176-1.124
	c0.164-0.202,0.367-0.432,0.389-0.667c0.076-0.672,0.225-0.973,0.876-1.167c0.527-0.157,1.074-0.297,1.624-0.33
	c3.885-0.252,7.772-0.466,11.66-0.705c0.9-0.053,1.8-0.135,2.7-0.202c0.014-0.079,0.032-0.159,0.051-0.239
	c-0.138-0.071-0.279-0.197-0.416-0.203c-1.14-0.035-2.284-0.034-3.426-0.076c-1.139-0.044-2.296-0.012-3.407-0.213
	c-1.524-0.274-3.019-0.73-4.521-1.128c-0.446-0.119-0.889-0.272-1.307-0.47c-1.097-0.519-2.174-1.075-3.267-1.608
	c-0.644-0.312-1.095-1.294-0.695-2.1c0.39-0.789,0.414-1.715,0.978-2.5c0.25-0.351,0.386-0.742,0.828-0.905
	c0.307-0.114,0.466-0.27,0.332-0.641c-0.137-0.366,0.019-0.627,0.418-0.714c0.136-0.03,0.27-0.08,0.398-0.118
	c0.083-0.897,0.44-1.093,1.259-0.697c0.127,0.065,0.252,0.141,0.375,0.21c0.281,0.159,0.562,0.318,0.839,0.479
	c1.876,1.108,3.785,2.142,5.475,3.566c1.646,1.391,3.446,2.615,5.19,3.894c0.286,0.209,0.639,0.328,0.962,0.488
	c0.035-0.039,0.07-0.077,0.107-0.111c-0.037-0.124-0.039-0.273-0.116-0.357c-0.262-0.314-0.535-0.621-0.833-0.9
	c-1.494-1.409-2.991-2.812-4.494-4.208c-0.601-0.554-1.236-1.075-1.845-1.626c-0.54-0.483-1.125-0.94-1.588-1.493
	c-0.691-0.812-1.304-1.694-1.936-2.562c-0.22-0.299-0.432-0.618-0.567-0.961c-0.239-0.601,0.005-1.081,0.64-1.223
	c0.377-0.083,0.775-0.062,1.167-0.067c0.433-0.002,0.701-0.171,0.821-0.613c0.05-0.207,0.182-0.438,0.349-0.553
	c0.555-0.38,1.014-0.783,1.03-1.525c0.006-0.137,0.255-0.385,0.369-0.376c0.435,0.048,0.964,0.054,1.271,0.303
	c1.184,0.95,2.365,1.952,3.059,3.337c0.745,1.483,1.414,3.007,2.039,4.543c0.784,1.924,1.599,3.829,2.768,5.558
	c0.09,0.128,0.196,0.25,0.292,0.371c-0.141-0.869-0.362-1.686-0.626-2.48c-0.59-1.743-1.282-3.456-1.782-5.227
	c-0.776-2.729-0.572-5.527-0.347-8.312c0.018-0.224,0.097-0.458,0.19-0.664c0.134-0.287,0.358-0.33,0.612-0.139
	c0.107,0.079,0.195,0.184,0.256,0.25c0.183-0.284,0.34-0.536,0.503-0.79l0.412-0.123c0.563,0.355,1.13,0.705,1.682,1.054
	c0.395-0.272,0.395-0.272,1.356,0.179c0.314-0.262,0.652-0.727,1.078-0.316c0.448,0.437,0.952,0.954,1.107,1.524
	c0.378,1.377,0.528,2.808,0.286,4.249c-0.106,0.615-0.153,1.241-0.23,1.862c-0.241,1.981-0.486,3.964-0.717,5.947
	c-0.075,0.643-0.106,1.288-0.156,1.934c0.134-0.049,0.177-0.108,0.195-0.175c0.548-2.11,1.186-4.201,1.614-6.336
	c0.514-2.558,1.12-5.064,2.409-7.354c0.173-0.313,0.451-0.587,0.732-0.82c0.248-0.201,0.561-0.172,0.758,0.115
	c0.225,0.33,0.402,0.692,0.607,1.052c0.692-0.249,0.743-0.221,1.15,0.474c0.064,0.106,0.23,0.226,0.346,0.223
	c0.827-0.017,0.856,0.007,1.139,0.796c0.041,0.123,0.178,0.269,0.298,0.294c0.542,0.124,0.756,0.499,0.846,0.99
	c0.041,0.245-0.003,0.538,0.116,0.731c0.516,0.841,0.222,1.578-0.207,2.318c-0.687,1.171-1.346,2.362-2.079,3.509
	c-1.213,1.898-2.571,3.689-4.178,5.284c-0.396,0.394-0.714,0.862-1.07,1.295c0.524-0.357,0.953-0.812,1.465-1.133
	c1.713-1.066,3.456-2.084,5.188-3.115c1.607-0.955,3.38-1.446,5.205-1.728c1.098-0.173,1.295,0.128,1.075,1.239
	c-0.006,0.026,0.023,0.059,0.036,0.088c0.974,0.434,1.151,0.73,1.024,1.712c1.052,0.443,1.881,1.111,2.33,2.149
	C251.707,620.678,251.473,621.052,250.618,621.348z"/>
<g>
	<path d="M634.27,861.767c-3.725-8.629-10.089-15.177-19.391-19.922c0.068-6.926-2.48-11.104-8.934-14.731
		c0.425-3.881,0.113-7.606-2.255-10.491c-2.063-2.514-5.207-3.789-9.342-3.789c-1.482,0-3.172,0.152-5.149,0.464
		c-19.119,2.957-34.12,7.954-47.211,15.729c-3.299,1.963-6.602,3.92-9.904,5.877c-3.747,2.221-7.534,4.466-11.341,6.732
		c5.848-7.467,11.557-15.571,17.204-24.405c4.559-7.141,8.827-14.533,12.956-21.683c1.714-2.967,3.426-5.933,5.182-8.92
		c2.774-4.802,8.521-14.748,1.873-25.941c-0.053-0.345-0.084-1.011-0.105-1.473c-0.041-0.891-0.088-1.899-0.283-3.06
		c-1.239-6.791-4.735-11.138-10.464-12.955c-1.078-2.978-2.049-5.365-3.981-7.191c-2.746-2.595-6.137-2.812-9.099-2.812
		c-0.18,0-0.364,0.001-0.554,0.003c-2.221-3.727-4.725-7.254-9.805-7.254c-0.59,0-1.175,0.052-1.767,0.146
		c-0.988-1.797-2.033-3.624-3.256-5.415c-2.061-2.997-5.187-4.717-8.578-4.717c-2.396,0-4.711,0.847-6.767,2.507
		c-3.649,3.039-6.112,5.842-7.723,8.769c-7.562,13.432-12.502,27.78-16.149,41.683c0.101-0.685,0.209-1.366,0.325-2.047
		c2.074-12.289,1.199-25.535-2.596-39.36c-1.707-6.259-6.459-11.291-11.214-15.94c-2.646-2.55-5.34-3.085-7.132-3.085
		c-3.114,0-5.555,1.521-7.409,3.046c-3.191-1.438-5.041-2.06-7.187-2.06c-1.267,0-2.363,0.247-3.343,0.626
		c-1.382-0.864-2.771-1.731-4.162-2.6c-2.448-1.527-4.908-3.062-7.361-4.61l-2.301-1.452l-8.297,2.463l-1.205,1.864
		c-0.316,0.491-0.63,0.98-0.943,1.474c-1.017-0.366-2.051-0.55-3.099-0.55c-3.501,0-6.577,2.123-8.249,5.723
		c-1.257,2.765-1.989,5.377-2.175,7.751c-1.432,17.751-2.997,37.337-0.307,56.979c-1.113-0.102-2.229-0.187-3.345-0.247
		c-1.76-3.754-3.521-7.391-5.293-10.923c-6.451-12.892-16.969-21.965-28.06-30.858c-3.651-2.969-8.486-3.411-12.372-3.767
		c-0.6-0.055-1.191-0.108-1.762-0.172l-0.711-0.038c-4.254,0-8.95,4.626-9.139,9l-0.004,0.123c-0.07,3.169-1.545,5.129-6.348,8.41
		c-2.982,2.067-4.734,5.563-5.395,8.19c-0.111,0.394-0.216,0.617-0.276,0.728c-0.149,0.04-0.487,0.104-1.114,0.106
		c-0.562,0.007-1.123,0.007-1.688,0.007h-0.494c-2.617,0-5.876,0-9.152,0.722c-4.373,0.982-7.774,3.405-9.578,6.823
		c-1.813,3.435-1.891,7.64-0.226,11.825c1.507,3.821,3.82,7.182,5.642,9.648c0.978,1.343,1.95,2.69,2.922,4.038
		c4.451,6.167,9.053,12.544,14.086,18.451c1.1,1.312,2.261,2.552,3.451,3.745c-1.168,1.263-2.244,2.562-3.197,3.905
		c-3.299-1.968-6.598-3.893-9.869-5.8c-2.496-1.456-4.994-2.912-7.529-4.41c-2.385-1.382-4.812-2.756-7.24-4.13l-0.102-0.058
		c-0.328-0.184-0.657-0.373-0.988-0.563c-0.786-0.452-1.599-0.92-2.481-1.368l-0.099-0.049c-3.223-1.562-5.864-2.289-8.312-2.289
		c-3.214,0-8.425,1.277-10.462,9.013c-4.062,1.036-6.074,3.343-7.052,5.135c-0.858,1.571-1.624,4.026-0.884,7.195
		c-4.049,1.916-6.073,5.183-7.586,7.624c-0.415,0.668-0.806,1.3-1.19,1.839c-3.492,4.851-4.966,10.053-6.267,14.643
		c-0.805,2.839-1.565,5.521-2.711,7.834c-2.256,4.556-2.545,9.854-0.813,14.919c1.712,5.009,5.297,9.242,9.58,11.322
		c3.753,1.829,7.484,3.691,11.211,5.552c5.59,2.79,11.37,5.675,17.145,8.404c3.699,1.746,7.844,3.238,12.338,4.442
		c3.132,0.828,6.26,1.687,9.388,2.545c6.34,1.739,12.821,3.507,19.382,5.046c-0.13,0.52-0.254,1.02-0.37,1.497
		c-16.57,0.98-33.44,1.993-50.088,3.072c-5.542,0.336-10.896,1.754-15.401,3.097c-8.647,2.576-10.995,7.885-11.827,15.064
		c-0.243,0.531-1.142,1.636-1.69,2.309l-0.381,0.469c-2.573,3.163-5.003,6.151-4.37,10.178c0.365,2.325,1.631,4.038,3.261,5.478
		c-0.493,1.249-0.982,2.509-1.444,3.762c-2.239,5.977-0.364,11.23,4.904,13.968c0.188,1.426,0.312,2.904,0.441,4.449
		c0.17,2.035,0.347,4.139,0.697,6.358l0.199,1.212c0.547,3.386,1.167,7.224,3.116,10.791c2.009,3.555,6.89,5.473,10.461,5.473
		c0.975,0,1.9-0.139,2.711-0.399c4.026-1.263,8.17-2.183,12.559-3.157c9.101-2.021,18.511-4.11,27.256-9.49
		c1.122-0.695,3.021-1.121,4.616-1.428c11.33-2.309,21.688-6.552,33.074-11.445c3.169-1.354,6.408-2.644,9.674-3.887
		c-4.412,3.063-8.805,6.173-13.127,9.334c-13.871,10.132-27.038,20.481-35.684,35.652c-0.662,1.168-1.35,2.326-2.037,3.487
		c-1.888,3.188-3.841,6.482-5.405,10.095c-1.646,3.778-2.036,8.365-1.032,11.924c0.993,3.635,4.216,5.496,6.945,6.545
		c4.316,8.759,11.087,10.696,16.23,10.696c0.631,0,1.277-0.028,1.941-0.087c2.934,4.807,6.748,5.862,9.532,5.862
		c0.279,0,0.56-0.011,0.839-0.032c0.145,0.376,0.279,0.748,0.403,1.12c1.877,5.477,3.818,11.139,10.536,11.139
		c1.152,0,2.307-0.185,3.576-0.497c3.572,4.621,7.668,6.962,12.191,6.962c4.434,0,8.605-2.297,12.402-6.827
		c2.385-2.847,4.032-5.956,5.625-8.963c0.63-1.189,1.225-2.313,1.841-3.373c2.96-5.073,5.892-10.163,8.823-15.252
		c6.67-11.578,13.566-23.55,20.672-35.087c1.148-1.87,2.249-3.772,3.323-5.688c0.427,0.348,0.847,0.702,1.281,1.039
		c-0.406,1.947-0.859,3.89-1.376,5.831c-5.1,19.359-3.366,39.628,5.132,60.193c0.393,0.975,0.744,2.036,1.117,3.159
		c1.438,4.333,3.228,9.725,8.718,13.485c2.305,1.584,4.849,3.051,7.832,3.05c5.819,0,8.327-5.249,9.34-7.56l0.485-0.165
		c3.853-1.312,6.235-3.481,7.701-5.863c0.115,0.174,0.231,0.352,0.351,0.532c0.987,1.504,2.181,3.322,4.562,3.806
		c0.184,0.065,0.386,0.147,0.602,0.23c1.465,0.562,3.472,1.331,5.726,1.33c1.181,0,2.303-0.213,3.415-0.668
		c2.502-1.065,4.205-2.977,5.562-4.767c1.155,0.227,2.288,0.341,3.393,0.341c7.479-0.001,13.162-5.159,15.206-13.807
		c0.529-2.253,1.047-4.511,1.564-6.77c1.31-5.714,2.663-11.622,4.204-17.325c3.13-11.563,3.846-22.425,2.167-32.936
		c3.289-4.339,6.003-9.103,8.5-13.491l0.704-1.234c1.407-1.551,2.748-3.142,4.035-4.758c1.171,2.128,2.398,4.449,3.661,6.839
		c3.393,6.421,7.238,13.699,11.281,19.598c2.375,3.403,4.726,6.814,7.048,10.197c1.073,1.583,2.167,3.131,3.257,4.674l1.009,1.429
		c0.198,0.272,0.393,0.553,0.588,0.832c0.427,0.611,0.911,1.306,1.483,2.025c1.972,2.439,5.092,5.683,9.407,5.682
		c4.221-0.001,6.803-2.893,8.35-5.646c2.342-0.145,4.468-1.091,6.04-2.7c1.165-1.192,2.509-3.247,2.776-6.527
		c3.426-0.911,5.65-3.321,7.215-5.017c0.447-0.485,0.87-0.944,1.255-1.306c3.701-3.466,5.998-7.796,8.024-11.616
		c1.259-2.372,2.447-4.611,3.818-6.39c5.976-7.782,4.781-19.855-0.023-25.817c-2.324-2.892-4.626-5.817-6.927-8.741
		c-3.208-4.077-6.524-8.293-9.86-12.357l-0.424-0.5l-0.038-0.031c-2.469-2.811-6.771-6.073-8.071-7.036
		c-4.256-3.699-9.352-7.952-15-11.625c-6.613-4.317-13.458-8.153-20.495-11.532c-1.631-3.015-3.706-5.548-6.141-7.53
		c17.728-1.229,35.405-4.987,52.702-11.233c12.65-4.529,25.555-9.014,38.034-13.351l3.977-1.382c3.91-1.355,8.668-3.524,10.78-8.312
		C636.678,870.837,636.399,866.72,634.27,861.767z M341.291,819.671c1.293-1.39,2.773-2.767,4.387-4.138
		c1.494-1.27,3.099-2.534,4.766-3.8c3.143-2.383,6.502-4.768,9.76-7.19c9.764-7.237,15.205-16.171,30.659-17.575
		c1.366-0.124,2.802-0.195,4.333-0.195c0.727,0,1.455,0.017,2.184,0.04c2.257,0.073,4.526,0.258,6.8,0.522
		c0.139,0.016,0.277,0.03,0.415,0.047c0.694,0.084,1.388,0.176,2.082,0.274c1.427,0.201,2.853,0.429,4.277,0.682
		c1.646,0.291,3.288,0.611,4.925,0.952c0.539,0.113,1.079,0.226,1.617,0.342c18.036,3.907,35.186,9.846,46.823,4.566
		c0.67-0.304,1.328-0.632,1.961-1.013c-0.949,1.329-1.708,2.698-2.336,4.084c-4.824,10.646-1.58,22.331-11.953,25.411
		c-7.398,2.129-15.027,1.556-23.897-1.171c-2.343-0.72-4.777-1.593-7.313-2.605c-3.777-1.508-7.798-3.333-12.107-5.436
		c-1.494-0.729-3.017-1.483-4.584-2.278c-0.157-0.08-0.307-0.153-0.465-0.233c-1.025-0.535-2.069-1.071-3.126-1.6
		c-4.442-2.222-9.137-4.302-13.896-5.58c-8.065-2.165-16.315-2.02-23.833,3.697c-2.879,2.159-5.104,5.677-6.312,9.569
		c-0.715,2.297-1.072,4.721-0.998,7.08c0.123,3.928,1.438,7.663,4.309,10.279c1.408,1.283,3.188,2.299,5.385,2.935
		c-0.81,0.466-1.611,0.906-2.404,1.322c-0.106,0.056-0.213,0.111-0.318,0.166c-0.682,0.353-1.357,0.687-2.025,0.998
		c-1.42,0.661-2.809,1.227-4.16,1.681c-2.878,0.967-5.593,1.428-8.093,1.24c-3.639-0.272-6.823-1.918-9.382-5.407
		c-0.555-0.744-1.012-1.479-1.387-2.206c-1.371-2.665-1.57-5.222-0.895-7.705c0.495-1.816,1.463-3.594,2.774-5.345
		C339.867,821.273,340.547,820.47,341.291,819.671z M509.234,980.56c-1.402,2.444-2.776,4.902-4.186,7.276
		c-1.432,2.411-2.901,4.733-4.474,6.863c-1.495,2.027-3.084,3.878-4.823,5.466c-3.805,3.474-8.33,5.686-14.181,5.686
		c-18.111,0-33.608-2.805-46.288-10.139c-1.897-1.098-3.727-2.304-5.497-3.609c-2.983-2.202-5.785-4.709-8.403-7.549
		c-1.475-1.601-2.897-3.298-4.255-5.115c-4.188-5.608-7.814-12.267-10.854-20.131c-1.407-3.657-2.357-7.227-2.93-10.71
		c-0.381-2.316-0.588-4.592-0.637-6.826c-0.015-0.675-0.027-1.349-0.014-2.015c0.048-2.351,0.278-4.649,0.656-6.902
		c0.887-5.29,2.619-10.312,4.992-15.03c-3.66,3.897-7.822,6.896-14.981,6.896l0.003,0.006c-6.942,0-13.775-4.768-20.287-9.725
		c-2.515-1.914-4.98-3.854-7.387-5.561c-7.479-5.306-14.375-8.343-20.326-1.202c0.687-2.835,1.43-5.624,2.32-8.242
		c0.686-2.015,1.463-3.926,2.365-5.682c2.625-5.103,6.34-8.87,12.17-9.893c8.484-1.464,15.223,3.618,26.451,11.786
		c2.609,1.898,5.463,3.963,8.637,6.15c0.273,0.189,0.543,0.376,0.82,0.566c2.964,2.066,6.146,3.378,9.098,3.73
		c3.068,0.366,5.886-0.304,7.94-2.266c1.141-1.1,1.892-2.229,2.339-3.387c1.553-4.011-0.73-8.396-4.787-13.323
		c-0.04-0.048-0.076-0.095-0.116-0.144c-4.11-5.077-8.31-9.193-12.433-12.922c-10.492-9.488-20.494-16.448-27.287-30.19
		c-0.652-1.32-1.277-2.701-1.869-4.155c-0.416-1.027-0.703-2.001-0.898-2.936c-0.588-2.816-0.219-5.238,0.847-7.421
		c0.187-0.382,0.386-0.758,0.612-1.125c3.143-5.095,10.055-8.966,16.898-13.87c1.275-0.914,2.549-1.862,3.794-2.862
		c-0.685,1.271-1.196,2.523-1.574,3.761c-4.147,13.557,9.259,25.157,22.613,36.75c1.521-1.967,3.1-3.678,4.712-5.173
		c1.57-1.456,3.172-2.7,4.784-3.74c1.881-1.213,3.774-2.151,5.646-2.844c1.987-0.734,3.95-1.194,5.846-1.399
		c6.938-0.751,12.979,1.842,16.045,6.35c3.115,4.581-6.779,11.541-8.794,22.168c-0.522-0.934-1.055-1.846-1.595-2.732
		c-2.493-4.097-5.157-7.648-7.845-10.315c-1.668-1.655-3.346-2.972-4.998-3.854c-2.575-1.377-5.09-1.714-7.411-0.689
		c-1.556,0.687-3.024,1.982-4.368,3.986c7.56,6.587,14.809,13.201,18.522,20.199c2.563,4.808,1.869,9.789-0.69,14.779
		c4.979-3.848,10.061-7.148,14.811-9.853c0.268-0.184,0.534-0.374,0.809-0.559l10.26-6.045c-6.047,6.045-6.778,11.358-5.314,18.686
		l0.492,2.616c5.521-14.273,13.107-26.248,23.692-26.248c1.383,0,2.711,0.131,4.001,0.348c2.195,0.37,4.27,1.014,6.259,1.822
		c0.111,0.045,0.221,0.093,0.331,0.139c2.077,0.866,4.066,1.895,6.012,2.957c8.146,4.449,15.537,9.396,25.533,4.626
		c-6.188,5.946-9.485,14.702-15.211,19.938c-2.919,2.67-6.467,4.429-11.354,4.429c-2.74,0-5.272-0.663-7.644-1.682
		c-6.278-2.698-11.421-7.911-16.256-10.116c-1.396-0.637-2.767-1.027-4.131-1.027c-0.344,0-0.685,0.054-1.024,0.134
		c-3.263,0.767-6.328,5.073-9.126,10.468l3.006,15.964c2.778,14.893-7.157,25.378-18.655,32.313
		c-1.756,1.059-3.546,2.035-5.335,2.932c-0.438,0.22-0.874,0.434-1.311,0.644c-0.169,0.081-0.338,0.165-0.506,0.244
		c0.089,0.172,0.185,0.338,0.275,0.508c0.341,0.638,0.697,1.263,1.067,1.877c1.515,2.508,3.266,4.82,5.212,6.939
		c13.556,14.76,36.437,20.24,52.702,18.585c2.098-0.214,4.084-0.547,5.927-0.993c2.127-0.515,4.058-1.184,5.747-1.994
		c2.551-1.225,4.551-2.776,5.807-4.636c1.071-1.588,1.895-3.202,2.506-4.828c0.96-2.554,1.368-5.136,1.275-7.693
		c-0.17-4.727-2.052-9.361-5.33-13.56c-3.82-4.893-9.532-9.187-16.64-12.336c-2.234-0.99-4.599-1.875-7.093-2.621
		c0.673-0.149,1.318-0.318,1.949-0.495c10.17-2.861,15.048-9.166,20.07-13.284c2.414-1.979,4.867-3.445,7.956-3.783
		c0.83-0.091,1.7-0.11,2.634-0.025c3.329,0.3,6.081,1.761,8.209,4.104c1.936,2.132,3.352,4.997,4.192,8.418
		c2.25,9.146,0.404,22.207-6.437,35.522c-0.969,1.885-2.038,3.774-3.21,5.659c-1.1,1.769-2.284,3.531-3.567,5.282
		C513.794,975.344,511.63,977.983,509.234,980.56z"/>
	<path d="M437.052,934.584c-0.3-2.696-0.97-5.668-1.706-8.828c-0.359-1.541-0.732-3.127-1.089-4.749
		c-1.976-8.995-3.373-19.095,1.763-28.694c-6.93,9.425-10.884,20.248-10.772,32.102c0.024,2.644,0.252,5.339,0.694,8.082
		c0.613,3.799,1.639,7.688,3.108,11.659c0.584,1.577,1.229,3.166,1.956,4.768c1.844-1.989,3.453-4.189,4.558-6.539
		C436.721,939.926,437.324,937.304,437.052,934.584z"/>
</g>
</svg>
