<?xml version="1.0" encoding="UTF-8" standalone="no"?>
<!DOCTYPE svg PUBLIC "-//W3C//DTD SVG 1.1//EN" "http://www.w3.org/Graphics/SVG/1.1/DTD/svg11.dtd">
<svg width="100%" height="100%" viewBox="0 0 512 512" version="1.1" xmlns="http://www.w3.org/2000/svg" xmlns:xlink="http://www.w3.org/1999/xlink" xml:space="preserve" xmlns:serif="http://www.serif.com/" style="fill-rule:evenodd;clip-rule:evenodd;stroke-linejoin:round;stroke-miterlimit:2;">
    <g transform="matrix(1,0,0,1,-188.029,-637.138)">
        <path d="M634.27,861.767C630.545,853.138 624.181,846.59 614.879,841.845C614.947,834.919 612.399,830.741 605.945,827.114C606.37,823.233 606.058,819.508 603.69,816.623C601.627,814.109 598.483,812.834 594.348,812.834C592.866,812.834 591.176,812.986 589.199,813.298C570.08,816.255 555.079,821.252 541.988,829.027C538.689,830.99 535.386,832.947 532.084,834.904C528.337,837.125 524.55,839.37 520.743,841.636C526.591,834.169 532.3,826.065 537.947,817.231C542.506,810.09 546.774,802.698 550.903,795.548C552.617,792.581 554.329,789.615 556.085,786.628C558.859,781.826 564.606,771.88 557.958,760.687C557.905,760.342 557.874,759.676 557.853,759.214C557.812,758.323 557.765,757.315 557.57,756.154C556.331,749.363 552.835,745.016 547.106,743.199C546.028,740.221 545.057,737.834 543.125,736.008C540.379,733.413 536.988,733.196 534.026,733.196C533.846,733.196 533.662,733.197 533.472,733.199C531.251,729.472 528.747,725.945 523.667,725.945C523.077,725.945 522.492,725.997 521.9,726.091C520.912,724.294 519.867,722.467 518.644,720.676C516.583,717.679 513.457,715.959 510.066,715.959C507.67,715.959 505.355,716.806 503.299,718.466C499.65,721.505 497.187,724.308 495.576,727.235C488.014,740.667 483.074,755.015 479.427,768.918C479.528,768.233 479.636,767.552 479.752,766.871C481.826,754.582 480.951,741.336 477.156,727.511C475.449,721.252 470.697,716.22 465.942,711.571C463.296,709.021 460.602,708.486 458.81,708.486C455.696,708.486 453.255,710.007 451.401,711.532C448.21,710.094 446.36,709.472 444.214,709.472C442.947,709.472 441.851,709.719 440.871,710.098C439.489,709.234 438.1,708.367 436.709,707.498C434.261,705.971 431.801,704.436 429.348,702.888L427.047,701.436L418.75,703.899L417.545,705.763C417.229,706.254 416.915,706.743 416.602,707.237C415.585,706.871 414.551,706.687 413.503,706.687C410.002,706.687 406.926,708.81 405.254,712.41C403.997,715.175 403.265,717.787 403.079,720.161C401.647,737.912 400.082,757.498 402.772,777.14C401.659,777.038 400.543,776.953 399.427,776.893C397.667,773.139 395.906,769.502 394.134,765.97C387.683,753.078 377.165,744.005 366.074,735.112C362.423,732.143 357.588,731.701 353.702,731.345C353.102,731.29 352.511,731.237 351.94,731.173L351.229,731.135C346.975,731.135 342.279,735.761 342.09,740.135L342.086,740.258C342.016,743.427 340.541,745.387 335.738,748.668C332.756,750.735 331.004,754.231 330.343,756.858C330.232,757.252 330.127,757.475 330.067,757.586C329.918,757.626 329.58,757.69 328.953,757.692C328.391,757.699 327.83,757.699 327.265,757.699L326.771,757.699C324.154,757.699 320.895,757.699 317.619,758.421C313.246,759.403 309.845,761.826 308.041,765.244C306.228,768.679 306.15,772.884 307.815,777.069C309.322,780.89 311.635,784.251 313.457,786.717C314.435,788.06 315.407,789.407 316.379,790.755C320.83,796.922 325.432,803.299 330.465,809.206C331.565,810.518 332.726,811.758 333.916,812.951C332.748,814.214 331.672,815.513 330.719,816.856C327.42,814.888 324.121,812.963 320.85,811.056C318.354,809.6 315.856,808.144 313.321,806.646C310.936,805.264 308.509,803.89 306.081,802.516L305.979,802.458C305.651,802.274 305.322,802.085 304.991,801.895C304.205,801.443 303.392,800.975 302.51,800.527L302.411,800.478C299.188,798.916 296.547,798.189 294.099,798.189C290.885,798.189 285.674,799.466 283.637,807.202C279.575,808.238 277.563,810.545 276.585,812.337C275.727,813.908 274.961,816.363 275.701,819.532C271.652,821.448 269.628,824.715 268.115,827.156C267.7,827.824 267.309,828.456 266.925,828.995C263.433,833.846 261.959,839.048 260.658,843.638C259.853,846.477 259.093,849.159 257.947,851.472C255.691,856.028 255.402,861.326 257.134,866.391C258.846,871.4 262.431,875.633 266.714,877.713C270.467,879.542 274.198,881.404 277.925,883.265C283.515,886.055 289.295,888.94 295.07,891.669C298.769,893.415 302.914,894.907 307.408,896.111C310.54,896.939 313.668,897.798 316.796,898.656C323.136,900.395 329.617,902.163 336.178,903.702C336.048,904.222 335.924,904.722 335.808,905.199C319.238,906.179 302.368,907.192 285.72,908.271C280.178,908.607 274.824,910.025 270.319,911.368C261.672,913.944 259.324,919.253 258.492,926.432C258.249,926.963 257.35,928.068 256.802,928.741L256.421,929.21C253.848,932.373 251.418,935.361 252.051,939.388C252.416,941.713 253.682,943.426 255.312,944.866C254.819,946.115 254.33,947.375 253.868,948.628C251.629,954.605 253.504,959.858 258.772,962.596C258.96,964.022 259.084,965.5 259.213,967.045C259.383,969.08 259.56,971.184 259.91,973.403L260.109,974.615C260.656,978.001 261.276,981.839 263.225,985.406C265.234,988.961 270.115,990.879 273.686,990.879C274.661,990.879 275.586,990.74 276.397,990.48C280.423,989.217 284.567,988.297 288.956,987.323C298.057,985.302 307.467,983.213 316.212,977.833C317.334,977.138 319.233,976.712 320.828,976.405C332.158,974.096 342.516,969.853 353.902,964.96C357.071,963.606 360.31,962.316 363.576,961.073C359.164,964.136 354.771,967.246 350.449,970.407C336.578,980.539 323.411,990.888 314.765,1006.06C314.103,1007.23 313.415,1008.38 312.728,1009.55C310.84,1012.73 308.887,1016.03 307.323,1019.64C305.677,1023.42 305.287,1028.01 306.291,1031.57C307.284,1035.2 310.507,1037.06 313.236,1038.11C317.552,1046.87 324.323,1048.81 329.466,1048.81C330.097,1048.81 330.743,1048.78 331.407,1048.72C334.341,1053.53 338.155,1054.58 340.939,1054.58C341.218,1054.58 341.499,1054.57 341.778,1054.55C341.923,1054.92 342.057,1055.3 342.181,1055.67C344.058,1061.15 345.999,1066.81 352.717,1066.81C353.869,1066.81 355.024,1066.62 356.293,1066.31C359.865,1070.93 363.961,1073.27 368.484,1073.27C372.918,1073.27 377.089,1070.98 380.886,1066.45C383.271,1063.6 384.918,1060.49 386.511,1057.48C387.141,1056.29 387.736,1055.17 388.352,1054.11C391.312,1049.04 394.244,1043.95 397.175,1038.86C403.845,1027.28 410.741,1015.31 417.847,1003.77C418.995,1001.9 420.096,999.999 421.17,998.083C421.597,998.431 422.017,998.785 422.451,999.122C422.045,1001.07 421.592,1003.01 421.075,1004.95C415.975,1024.31 417.709,1044.58 426.207,1065.15C426.6,1066.12 426.951,1067.18 427.324,1068.31C428.762,1072.64 430.552,1078.03 436.042,1081.79C438.347,1083.37 440.891,1084.84 443.874,1084.84C449.693,1084.84 452.201,1079.59 453.214,1077.28L453.699,1077.12C457.552,1075.8 459.934,1073.63 461.4,1071.25C461.515,1071.43 461.631,1071.6 461.751,1071.78C462.738,1073.29 463.932,1075.11 466.313,1075.59C466.497,1075.65 466.699,1075.74 466.915,1075.82C468.38,1076.38 470.387,1077.15 472.641,1077.15C473.822,1077.15 474.944,1076.94 476.056,1076.48C478.558,1075.42 480.261,1073.51 481.618,1071.71C482.773,1071.94 483.906,1072.06 485.011,1072.06C492.49,1072.06 498.173,1066.9 500.217,1058.25C500.746,1056 501.264,1053.74 501.781,1051.48C503.091,1045.77 504.444,1039.86 505.985,1034.15C509.115,1022.59 509.831,1011.73 508.152,1001.22C511.441,996.879 514.155,992.115 516.652,987.727L517.356,986.493C518.763,984.942 520.104,983.351 521.391,981.735C522.562,983.863 523.789,986.184 525.052,988.574C528.445,994.995 532.29,1002.27 536.333,1008.17C538.708,1011.58 541.059,1014.99 543.381,1018.37C544.454,1019.95 545.548,1021.5 546.638,1023.04L547.647,1024.47C547.845,1024.74 548.04,1025.03 548.235,1025.3C548.662,1025.91 549.146,1026.61 549.718,1027.33C551.69,1029.77 554.81,1033.01 559.125,1033.01C563.346,1033.01 565.928,1030.12 567.475,1027.37C569.817,1027.22 571.943,1026.27 573.515,1024.66C574.68,1023.47 576.024,1021.42 576.291,1018.14C579.717,1017.23 581.941,1014.82 583.506,1013.12C583.953,1012.64 584.376,1012.18 584.761,1011.82C588.462,1008.35 590.759,1004.02 592.785,1000.2C594.044,997.827 595.232,995.588 596.603,993.809C602.579,986.027 601.384,973.954 596.58,967.992C594.256,965.1 591.954,962.175 589.653,959.251C586.445,955.174 583.129,950.958 579.793,946.894L579.369,946.394L579.331,946.363C576.862,943.552 572.56,940.29 571.26,939.327C567.004,935.628 561.908,931.375 556.26,927.702C549.647,923.385 542.802,919.549 535.765,916.17C534.134,913.155 532.059,910.622 529.624,908.64C547.352,907.411 565.029,903.653 582.326,897.407C594.976,892.878 607.881,888.393 620.36,884.056L624.337,882.674C628.247,881.319 633.005,879.15 635.117,874.362C636.678,870.837 636.399,866.72 634.27,861.767ZM341.291,819.671C342.584,818.281 344.064,816.904 345.678,815.533C347.172,814.263 348.777,812.999 350.444,811.733C353.587,809.35 356.946,806.965 360.204,804.543C369.968,797.306 375.409,788.372 390.863,786.968C392.229,786.844 393.665,786.773 395.196,786.773C395.923,786.773 396.651,786.79 397.38,786.813C399.637,786.886 401.906,787.071 404.18,787.335C404.319,787.351 404.457,787.365 404.595,787.382C405.289,787.466 405.983,787.558 406.677,787.656C408.104,787.857 409.53,788.085 410.954,788.338C412.6,788.629 414.242,788.949 415.879,789.29C416.418,789.403 416.958,789.516 417.496,789.632C435.532,793.539 452.682,799.478 464.319,794.198C464.989,793.894 465.647,793.566 466.28,793.185C465.331,794.514 464.572,795.883 463.944,797.269C459.12,807.915 462.364,819.6 451.991,822.68C444.593,824.809 436.964,824.236 428.094,821.509C425.751,820.789 423.317,819.916 420.781,818.904C417.004,817.396 412.983,815.571 408.674,813.468C407.18,812.739 405.657,811.985 404.09,811.19C403.933,811.11 403.783,811.037 403.625,810.957C402.6,810.422 401.556,809.886 400.499,809.357C396.057,807.135 391.362,805.055 386.603,803.777C378.538,801.612 370.288,801.757 362.77,807.474C359.891,809.633 357.666,813.151 356.458,817.043C355.743,819.34 355.386,821.764 355.46,824.123C355.583,828.051 356.898,831.786 359.769,834.402C361.177,835.685 362.957,836.701 365.154,837.337C364.344,837.803 363.543,838.243 362.75,838.659C362.644,838.715 362.537,838.77 362.432,838.825C361.75,839.178 361.075,839.512 360.407,839.823C358.987,840.484 357.598,841.05 356.247,841.504C353.369,842.471 350.654,842.932 348.154,842.744C344.515,842.472 341.331,840.826 338.772,837.337C338.217,836.593 337.76,835.858 337.385,835.131C336.014,832.466 335.815,829.909 336.49,827.426C336.985,825.61 337.953,823.832 339.264,822.081C339.867,821.273 340.547,820.47 341.291,819.671ZM509.234,980.56C507.832,983.004 506.458,985.462 505.048,987.836C503.616,990.247 502.147,992.569 500.574,994.699C499.079,996.726 497.49,998.577 495.751,1000.17C491.946,1003.64 487.421,1005.85 481.57,1005.85C463.459,1005.85 447.962,1003.05 435.282,995.712C433.385,994.614 431.555,993.408 429.785,992.103C426.802,989.901 424,987.394 421.382,984.554C419.907,982.953 418.485,981.256 417.127,979.439C412.939,973.831 409.313,967.172 406.273,959.308C404.866,955.651 403.916,952.081 403.343,948.598C402.962,946.282 402.755,944.006 402.706,941.772C402.691,941.097 402.679,940.423 402.692,939.757C402.74,937.406 402.97,935.108 403.348,932.855C404.235,927.565 405.967,922.543 408.34,917.825C404.68,921.722 400.518,924.721 393.359,924.721L393.362,924.727C386.42,924.727 379.587,919.959 373.075,915.002C370.56,913.088 368.095,911.148 365.688,909.441C358.209,904.135 351.313,901.098 345.362,908.239C346.049,905.404 346.792,902.615 347.682,899.997C348.368,897.982 349.145,896.071 350.047,894.315C352.672,889.212 356.387,885.445 362.217,884.422C370.701,882.958 377.44,888.04 388.668,896.208C391.277,898.106 394.131,900.171 397.305,902.358C397.578,902.547 397.848,902.734 398.125,902.924C401.089,904.99 404.271,906.302 407.223,906.654C410.291,907.02 413.109,906.35 415.163,904.388C416.304,903.288 417.055,902.159 417.502,901.001C419.055,896.99 416.772,892.605 412.715,887.678C412.675,887.63 412.639,887.583 412.599,887.534C408.489,882.457 404.289,878.341 400.166,874.612C389.674,865.124 379.672,858.164 372.879,844.422C372.227,843.102 371.602,841.721 371.01,840.267C370.594,839.24 370.307,838.266 370.112,837.331C369.524,834.515 369.893,832.093 370.959,829.91C371.146,829.528 371.345,829.152 371.571,828.785C374.714,823.69 381.626,819.819 388.469,814.915C389.744,814.001 391.018,813.053 392.263,812.053C391.578,813.324 391.067,814.576 390.689,815.814C386.542,829.371 399.948,840.971 413.302,852.564C414.823,850.597 416.402,848.886 418.014,847.391C419.584,845.935 421.186,844.691 422.798,843.651C424.679,842.438 426.572,841.5 428.444,840.807C430.431,840.073 432.394,839.613 434.29,839.408C441.228,838.657 447.269,841.25 450.335,845.758C453.45,850.339 443.556,857.299 441.541,867.926C441.019,866.992 440.486,866.08 439.946,865.194C437.453,861.097 434.789,857.546 432.101,854.879C430.433,853.224 428.755,851.907 427.103,851.025C424.528,849.648 422.013,849.311 419.692,850.336C418.136,851.023 416.668,852.318 415.324,854.322C422.884,860.909 430.133,867.523 433.846,874.521C436.409,879.329 435.715,884.31 433.156,889.3C438.135,885.452 443.217,882.152 447.967,879.447C448.235,879.263 448.501,879.073 448.776,878.888L459.036,872.843C452.989,878.888 452.258,884.201 453.722,891.529L454.214,894.145C459.735,879.872 467.321,867.897 477.906,867.897C479.289,867.897 480.617,868.028 481.907,868.245C484.102,868.615 486.177,869.259 488.166,870.067C488.277,870.112 488.387,870.16 488.497,870.206C490.574,871.072 492.563,872.101 494.509,873.163C502.655,877.612 510.046,882.559 520.042,877.789C513.854,883.735 510.557,892.491 504.831,897.727C501.912,900.397 498.364,902.156 493.477,902.156C490.737,902.156 488.205,901.493 485.833,900.474C479.555,897.776 474.412,892.563 469.577,890.358C468.181,889.721 466.81,889.331 465.446,889.331C465.102,889.331 464.761,889.385 464.422,889.465C461.159,890.232 458.094,894.538 455.296,899.933L458.302,915.897C461.08,930.79 451.145,941.275 439.647,948.21C437.891,949.269 436.101,950.245 434.312,951.142C433.874,951.362 433.438,951.576 433.001,951.786C432.832,951.867 432.663,951.951 432.495,952.03C432.584,952.202 432.68,952.368 432.77,952.538C433.111,953.176 433.467,953.801 433.837,954.415C435.352,956.923 437.103,959.235 439.049,961.354C452.605,976.114 475.486,981.594 491.751,979.939C493.849,979.725 495.835,979.392 497.678,978.946C499.805,978.431 501.736,977.762 503.425,976.952C505.976,975.727 507.976,974.176 509.232,972.316C510.303,970.728 511.127,969.114 511.738,967.488C512.698,964.934 513.106,962.352 513.013,959.795C512.843,955.068 510.961,950.434 507.683,946.235C503.863,941.342 498.151,937.048 491.043,933.899C488.809,932.909 486.444,932.024 483.95,931.278C484.623,931.129 485.268,930.96 485.899,930.783C496.069,927.922 500.947,921.617 505.969,917.499C508.383,915.52 510.836,914.054 513.925,913.716C514.755,913.625 515.625,913.606 516.559,913.691C519.888,913.991 522.64,915.452 524.768,917.795C526.704,919.927 528.12,922.792 528.96,926.213C531.21,935.359 529.364,948.42 522.523,961.735C521.554,963.62 520.485,965.509 519.313,967.394C518.213,969.163 517.029,970.925 515.746,972.676C513.794,975.344 511.63,977.983 509.234,980.56Z" style="fill-rule:nonzero;"/>
        <path d="M437.052,934.584C436.752,931.888 436.082,928.916 435.346,925.756C434.987,924.215 434.614,922.629 434.257,921.007C432.281,912.012 430.884,901.912 436.02,892.313C429.09,901.738 425.136,912.561 425.248,924.415C425.272,927.059 425.5,929.754 425.942,932.497C426.555,936.296 427.581,940.185 429.05,944.156C429.634,945.733 430.279,947.322 431.006,948.924C432.85,946.935 434.459,944.735 435.564,942.385C436.721,939.926 437.324,937.304 437.052,934.584Z" style="fill-rule:nonzero;"/>
    </g>
</svg>
