<?xml version="1.0" encoding="UTF-8" standalone="no"?>
<!DOCTYPE svg PUBLIC "-//W3C//DTD SVG 1.1//EN" "http://www.w3.org/Graphics/SVG/1.1/DTD/svg11.dtd">
<svg width="100%" height="100%" viewBox="0 0 924 550" version="1.1" xmlns="http://www.w3.org/2000/svg" xmlns:xlink="http://www.w3.org/1999/xlink" xml:space="preserve" xmlns:serif="http://www.serif.com/" style="fill-rule:evenodd;clip-rule:evenodd;stroke-linejoin:round;stroke-miterlimit:2;">
    <g transform="matrix(1.26176,0,0,1.26176,-108.669,-368.21)">
        <path d="M124.57,411.697C137.33,402.237 143.93,390.357 166.591,390.357C198.271,390.357 232.591,409.717 251.951,398.057C242.051,411.917 248.871,429.297 234.791,433.477C218.731,438.097 201.791,432.157 176.711,419.397C161.531,411.477 143.271,403.337 127.65,415.217C117.09,423.137 113.79,446.237 130.51,451.077C117.53,458.557 106.09,460.977 98.83,451.077C87.83,436.337 107.41,424.458 124.57,411.697ZM164.39,556.018C142.83,556.018 122.15,517.738 106.75,536.218C110.05,522.578 114.45,509.818 126.99,507.618C139.75,505.418 149.21,515.538 170.111,529.838C177.371,534.899 185.731,536.218 190.571,531.598C196.731,525.658 193.871,519.058 187.491,511.358C168.791,488.258 148.551,481.658 137.551,454.598C130.951,438.318 148.551,432.378 163.072,420.718C153.244,438.971 170.836,454.174 188.337,469.364C204.274,448.743 225.526,450.484 232.808,461.191C236.548,466.691 224.668,475.051 222.248,487.811C212.245,469.936 199.363,458.65 190.766,471.472C199.844,479.383 208.549,487.325 213.008,495.729C220.048,508.929 206.628,523.229 192.768,536.209C183.528,544.789 179.568,556.01 164.388,556.01L164.39,556.018Z" style="fill-rule:nonzero;"/>
    </g>
    <g transform="matrix(1.26176,0,0,1.26176,-108.669,-368.21)">
        <path d="M282.201,590.764C267.681,589.444 264.821,607.044 243.041,611.884C270.981,620.244 286.161,642.244 273.401,661.164C262.051,677.974 200.501,674.004 181.251,636.804C198.131,628.824 216.261,614.954 212.241,593.414L208.631,574.244C212.341,567.094 216.441,561.514 220.821,561.514C230.281,561.514 239.961,576.914 254.481,576.914C271.861,576.914 275.161,558.434 286.381,547.654C267.021,556.894 255.801,535.774 235.781,535.774C223.071,535.774 213.961,550.154 207.331,567.294L206.741,564.154C204.981,555.354 205.861,548.974 213.121,541.714L200.801,548.974C200.471,549.194 200.151,549.424 199.831,549.644C171.121,565.984 132.401,600.414 149.761,645.544C166.261,688.224 197.061,701.434 240.181,701.434C257.121,701.434 264.821,686.024 273.401,671.064C305.521,636.524 304.201,592.744 282.201,590.764ZM185.481,565.094C175.921,582.964 185.211,602.284 186.721,615.854C187.361,622.244 183.991,628.184 179.461,633.074C167.701,607.145 171.711,583.824 185.481,565.094Z" style="fill-rule:nonzero;"/>
    </g>
    <g transform="matrix(1.26176,0,0,1.26176,-108.669,-368.21)">
        <path d="M687.236,654.763C671.136,648.111 658.529,635.632 642.965,628.075C641.34,627.279 639.893,626.041 638.475,624.881C637.403,623.997 635.524,623.221 636.186,621.519C636.938,619.589 638.772,620.77 640.057,621.039C647.053,622.545 654.028,624.175 661.983,625.982C654.28,616.21 649.405,605.351 642.358,595.893C636.483,588.01 632.952,578.768 627.139,570.895C626.508,570.028 625.715,568.846 627.039,568.057C628.631,567.113 629.242,568.776 630.076,569.632C644.021,584.034 658.951,597.38 674.75,611.692C672.34,603.657 669.973,596.831 666.719,590.318C658.561,574.04 653.907,556.639 650.422,538.861C650.221,537.815 649.572,536.404 650.986,536.015C652.884,535.495 653.166,537.53 653.98,538.625C666.457,555.345 674.222,574.502 682.132,593.575C683.157,596.034 683.691,598.774 686.357,601.554C680.64,576.898 681.81,552.375 677.718,528.409C676.109,519.008 676.226,509.319 675.614,499.75C675.542,498.546 675.216,496.811 676.692,496.367C678.417,495.846 678.678,497.578 679.026,498.767C682.747,511.489 688.678,523.382 692.325,536.213C696.934,552.444 696.747,569.021 698.509,585.463C698.722,587.366 698.948,589.263 699.45,591.129C699.766,565.56 702.612,540.057 699.835,514.446C698.882,505.569 700.423,496.412 700.948,487.405C701.048,485.685 700.962,483.091 703.3,483.152C705.206,483.198 705.118,485.662 705.226,487.235C706.58,505.843 714.507,523.193 716.23,541.986C716.554,539.767 717.048,537.572 717.171,535.356C717.882,522.253 721.569,509.517 722.071,496.384C722.149,494.379 722.7,492.33 720.753,490.809C717.497,488.272 721.294,485.717 721.144,483.008C720.902,478.609 717.527,473.917 721.019,469.267C721.794,468.22 722.396,465.669 720.013,464.473C715.204,462.063 715.861,458.15 717.13,454.004C717.573,452.536 719.554,450.415 715.993,450.004C713.931,449.765 711.514,448.523 711.395,452.353C711.327,454.683 709.944,456.569 708.153,457.943C704.835,460.48 701.28,459.861 698.608,457.233C695.67,454.333 697.698,451.412 700.063,449.146C701.36,447.908 703.03,446.427 704.651,446.263C712.354,445.499 712.671,438.753 715.065,433.772C716.003,431.829 715.184,429.829 713.225,427.79C712.815,429.367 712.547,430.643 712.155,431.884C710.733,436.5 706.856,438.616 702.292,437.283C701.224,436.98 700.235,436.472 699.169,436.202C688.944,433.585 687.415,430.544 691.802,421.129C692.886,418.796 694.743,417.415 697.532,417.656C699.776,417.848 701.966,417.783 703.098,415.078C700.383,414.171 698.012,416.032 695.469,415.65C692.668,415.231 690.114,414.169 690.602,410.9C691.123,407.412 694.071,407.926 696.247,408.931C699.849,410.558 700.159,408.886 700.864,405.851C702.005,400.952 707.171,398.299 708.653,393.313C709.159,391.581 709.604,391.081 707.913,389.574C704.581,386.608 702.851,382.246 699.231,379.213C697.047,377.383 696.737,372.586 700.461,372.045C706.086,371.227 710.477,366.491 716.518,367.92C715.377,359.765 715.93,359.031 723.954,359.17C726.472,359.218 728.042,358.191 729.511,356.333C731.329,354.002 729.159,353.239 728.152,351.857C726.504,349.581 727.429,347.498 729.5,346.198C731.662,344.838 732.234,343.744 731.379,340.996C729.887,336.114 732.391,333.675 737.19,335.276C742.336,336.984 743.887,335.276 743.749,330.294C743.671,326.983 744.224,323.66 745.782,320.637C746.462,319.308 747.413,318.102 749.122,318.111C750.88,318.12 751.802,319.312 752.161,320.825C753.167,325.007 759.136,327.595 756.063,333.121C755.682,333.791 756.317,334.473 757.17,334.64C757.711,334.752 758.252,334.855 758.783,335.022C765.41,337.094 761.338,344.094 764.195,347.266C767.957,351.426 770.424,354.563 764.898,359.269C770.22,361.931 770.847,365.347 768.093,370.582C766.566,373.495 766.204,377.598 770.851,380.127C773.353,381.488 774.859,384.799 776.628,387.367C778.962,390.8 775.126,392.576 774.349,395.181C772.779,400.484 770.828,405.409 763.732,406.366C766.072,408.888 766.836,411.76 770.804,408.914C774.519,406.257 777.339,408.375 776.396,413.084C774.845,420.835 772.652,428.436 770.658,436.081C770.183,437.883 768.603,438.973 766.935,438.898C763.46,438.726 762.345,441.369 762.847,443.436C764.482,450.203 759.505,453.764 756.025,457.519C753.754,459.96 752.455,462.206 751.875,465.267C751.637,466.515 750.996,467.687 750.512,468.891C747.432,476.57 746.006,476.99 740.883,470.685C738.414,467.66 736.449,466.709 733.205,469.347C735.381,470.95 735.641,472.529 735.664,475.452C735.717,480.954 731.387,485.102 732.365,490.531C732.67,492.294 730.984,492.281 729.861,492.849C728.068,493.747 728.486,495.729 728.304,497.291C725.95,518.009 723.581,538.726 720.081,559.291C719.999,559.747 720.2,560.245 720.489,562.377C727.706,545.455 737.884,531.881 745.803,516.983C746.77,515.173 747.451,511.538 749.69,512.432C752.411,513.518 750.514,516.764 749.776,518.81C743.239,537.212 736.501,555.55 729.899,573.942C728.057,579.061 726.428,584.267 725.055,589.599C737.93,571.832 753.448,556.179 764.752,537.35C766.695,534.11 770.166,532.402 771.844,529.051C772.153,528.443 772.967,527.998 773.721,528.585C774.879,529.481 774.299,530.566 773.879,531.569C771.803,536.692 769.936,541.921 767.559,546.903C758.651,565.56 748.655,583.599 736.094,600.113C735.264,601.209 733.864,602.109 735.035,605C735.308,604.354 735.474,603.612 735.885,603.076C746.78,589.011 761.912,579.797 775.373,568.69C780.187,564.711 785.457,561.291 789.76,556.671C790.6,555.778 791.725,554.378 792.959,555.479C794.121,556.514 793.055,557.849 792.311,558.91C785.51,568.567 778.229,577.847 770.174,586.497C762.447,594.809 755.344,603.615 748.094,612.657C750.102,613.259 750.891,612.004 751.807,611.323C761.561,604.141 772.389,599.134 783.778,595.266C790.758,592.896 797.739,590.567 804.237,587.029C805.749,586.195 807.235,585.623 808.925,586.444L808.601,588.639C788.394,602.392 769.285,617.621 748.693,632.503C763.787,631.027 777.871,630.002 791.789,627.465C793.166,627.215 795.014,626.068 795.766,627.808C796.719,629.989 794.452,630.551 793.028,631.116C779.917,636.4 766.868,641.896 752.821,644.38C741.557,646.361 730.042,644.895 718.821,647.205C716.167,647.743 712.831,647.502 715.081,652.012C715.858,653.578 714.911,655.246 713.063,654.926C708.899,654.209 705.37,656.602 701.436,656.846L687.236,654.763ZM695.002,634.977C680.109,607.01 668.344,579.165 656.398,551.423C659.729,571.355 684.641,625.571 695.002,634.977M738.273,576.855C725.173,592.314 716.296,609.774 712.718,629.998C723.061,613.045 729.504,594.363 738.273,576.855M694.635,425.954C692.309,430.686 695.447,431.673 698.981,432.394C700.063,432.609 701.182,432.718 702.18,433.122C704.635,434.145 707.231,434.438 708.34,431.721C709.762,428.251 711.442,424.239 709.508,420.71C708.031,418.016 705.108,419.305 702.711,420.63C701.815,421.12 700.539,421.238 699.488,421.085C695.611,420.515 693.895,421.989 694.635,425.954M710.918,386.437C712.816,385.272 714.893,383.77 717.166,382.677C720.352,381.153 722.465,379.285 720.492,375.526C718.728,372.161 713.193,370.193 710.765,372.385C708.773,374.189 706.74,374.681 704.296,374.734C703.276,374.753 701.944,374.589 701.626,376.043C701.347,377.341 702.218,378.163 703.216,378.673C705.804,379.997 707.495,382.053 708.566,384.712C708.914,385.57 709.484,386.314 710.918,386.437M742.432,376.727C743.379,379.771 744.221,383.646 745.858,387.154C746.555,388.669 748.579,388.305 749.944,386.642C755.946,379.345 754.762,371.038 746.919,366.012C744.605,364.534 743.011,365.486 743.46,367.818C744.008,370.715 743.537,373.259 742.432,376.727M720.752,396.814C720.74,395.562 721.309,393.41 718.684,392.984C715.68,392.51 712.065,391.091 710.286,394.693C708.626,398.071 706.522,400.908 703.948,403.547C702.79,404.732 701.602,406.712 703.108,407.878C705.059,409.382 707.694,410.456 710.219,410.052C712.723,409.654 713.483,407.007 713.698,404.948C713.946,402.604 712.352,399.829 717.048,401.326C718.641,401.837 720.65,399.792 720.752,396.814M734.268,338.206C734.2,341.584 738.52,343.793 735.549,346.39C731.205,350.196 734.649,352.574 736.936,354.565C739.954,357.188 742.604,354.705 744.358,352.381C746.618,349.398 746.85,345.527 747.329,341.926C747.515,340.558 746.36,338.605 744.692,339.352C741.033,340.968 737.949,338.562 734.268,338.206M680.893,626.206C672.196,611.89 659.377,601.558 646.514,591.275C654.932,605.841 668.863,615.071 680.893,626.206M732.783,390.048C733.135,388.583 733.344,387.88 733.482,387.158C733.908,384.808 734.564,381.339 732.127,380.9C729.43,380.423 726.065,381.752 723.496,383.189C721.439,384.346 721.723,387.131 722.879,389.149C724.203,391.441 724.914,393.732 724.861,396.403C724.838,398.432 725.537,399.164 727.965,398.174C732.26,396.45 732.475,392.907 732.783,390.048M714.074,588.521C720.91,569.188 732.648,552.141 739.095,532.759C727.488,549.913 718.379,568.194 714.074,588.521M755.039,423.583C755.769,419.439 753.322,416.99 750.56,415.962C747.027,414.644 747.962,418.477 747.423,420.18C746.548,422.947 744.509,423.696 742.079,424.138C740.597,424.404 738.423,423.657 738.243,426.099C738.106,427.894 738.411,429.665 740.278,430.852C742.206,432.071 743.842,432.401 745.688,430.76C747.014,429.584 748.192,427.998 750.292,428.154C753.836,428.416 754.004,425.359 755.039,423.583M709.748,623.479C715.299,604.49 718.885,584.944 726.398,566.541C716.787,584.337 710.584,603.143 709.748,623.479M764.77,401.965C770.709,400.959 769.485,395.018 772.45,392.259C773.753,391.03 775.151,389.3 772.981,387.601C771.126,386.167 771.12,382.535 767.413,383.233C764.642,383.746 764.079,385.865 763.325,387.876C761.531,392.606 764.346,396.828 764.77,401.965M749.59,356.07C753.738,354.139 757.498,354.958 761.289,355.524C762.914,355.771 765.066,355.894 764.639,353.37C764.28,351.316 760.934,349.316 760.592,349.83C757.375,354.585 757.27,349.059 756.715,348.437C755.133,346.695 756.647,345.78 758.36,344.935C760.684,343.784 760.622,341.629 759.157,339.946C757.395,337.944 756.425,340.326 755.214,341.156C749.953,344.772 751.436,350.936 749.59,356.07M774.09,411.661C763.588,416.466 761.404,420.291 762.346,430.345C762.52,432.234 762.891,433.829 765.057,433.527C767.305,433.212 767.063,431.184 766.805,429.596C766.676,428.82 764.532,428.27 766.336,427.237C772.475,423.743 771.715,416.943 774.09,411.661M727.092,421.385C729.231,420.901 732.799,422.515 732.447,419.978C732.052,417.121 732.779,415.751 734.301,413.789C735.383,412.414 734.459,410.295 733.151,409.328C730.569,407.408 727.51,408.135 724.811,409.15C723.29,409.725 720.823,411.033 722.268,413.157C724.086,415.82 722.693,420.577 727.092,421.385M759.094,399.024C758.408,399.407 757.112,399.725 756.961,400.315C756.273,403.111 754.908,405.161 752.799,407.263C750.879,409.191 756.379,416.994 759.375,417.145C761.76,417.269 762.223,415.16 763.449,413.953C764.781,412.624 764.498,411.154 763.119,410.217C760.377,408.345 760.529,405.714 760.613,402.909C760.658,401.61 761.07,399.904 759.094,399.024M745.494,629.019C753.039,626.441 779.543,607.29 784.724,601.018C770.545,609.225 757.576,618.517 745.494,629.019M743.775,411.785C743.664,407.678 744.939,405.035 747.449,402.943C748.914,401.706 748.461,399.631 747.049,399.302C742.922,398.34 744.848,397.147 746.324,395.234C747.51,393.69 746.836,392.131 744.746,391.477C742.494,390.775 740.377,390.293 739.301,393.177C738.588,395.113 739.133,395.468 741.278,395.485C743.243,395.507 743.567,397.144 741.674,398.27C740.817,398.773 739.36,398.43 739.842,400.195C740.82,403.792 740.252,407.879 743.775,411.785M732.895,438.438C731.53,443.497 727.737,446.965 729.34,451.969C729.983,453.959 730.766,455.809 733.238,455.907C736.006,456.015 736.045,453.771 736.787,451.911C738.826,446.822 735.547,443.33 732.895,438.438M749.127,462.907C749.584,459.199 747.356,457.064 744.867,455.109C743.494,454.027 742.209,454.314 741.049,455.62C739.162,457.755 738.604,460.19 739.877,462.709C740.676,464.294 742.166,465.522 743.113,467.049C745.213,470.424 746.748,470.085 747.955,466.479C748.352,465.269 748.748,464.053 749.127,462.907M731.193,360.811C730.939,361.492 730.64,362.149 730.427,362.836C729.198,366.794 729.296,366.679 725.98,364.158C724.513,363.047 722.166,362.508 720.781,363.474C718.857,364.805 721.013,366.276 721.652,367.636C722.195,368.781 722.939,369.859 723.328,371.053C724.14,373.544 726.332,373.568 727.764,372.721C730.696,370.991 734.071,369.115 735.717,366.364C737.172,363.933 732.254,363.25 731.193,360.811M753.492,590.122C744.279,595.932 728.297,614.743 726.424,621.284C735.758,610.532 744.625,600.331 753.492,590.122M752.752,454.219C754.371,451.601 757.568,450.708 758.535,448.083C760.207,443.568 755.471,444.566 753.834,442.865C752.365,441.326 751.908,439.387 752.693,437.228C753.06,436.273 754.523,435.528 753.197,433.147C747.775,440.651 752.604,447.436 752.752,454.219M749.328,320.396C746.756,323.826 746.766,327.225 746.838,330.679C746.875,332.46 747.154,334.227 748.887,334.854C750.651,335.484 751.953,333.852 752.969,332.775C754.231,331.435 755.135,329.229 753.553,327.811C751.414,325.891 750.738,323.242 749.328,320.396M716.732,413.061C719.554,406.328 725.22,404.765 731.009,403.746C732.939,403.408 732.45,402.61 732.109,401.64C731.713,400.509 730.777,400.29 730.07,401.244C728.422,403.462 726.513,402.939 724.185,402.532C718.812,401.596 714.758,406.841 716.732,413.061M718.701,431.478C718.621,435.202 714.496,437.145 718.523,440.48C720.263,441.921 718.357,443.262 716.326,443.238C715.021,443.224 714.912,444.143 715.008,445.077C715.113,446.222 715.975,446.518 716.967,446.454C719.676,446.255 721.377,444.884 721.799,442.123C722.355,438.566 721.455,435.417 718.701,431.478M723.646,432.318C722.748,422.948 717.257,415.63 711.173,415.865C713.355,417.259 717.247,417.678 714.146,421.595C713.312,422.642 714.105,423.138 715.13,423.402C719.77,424.56 721.275,428.792 723.646,432.318M724.422,378.096C727.789,380.334 732.026,374.568 734.961,379.615C737.127,383.322 736.094,387.171 736.16,391.005C739.422,385.337 738.308,380.01 735.035,374.834C734.353,373.765 733.594,373.121 732.564,374.414C730.523,376.985 727.469,377.302 724.422,378.096M755.857,370.069C757.451,367.343 759.169,365.264 761.347,363.568C762.779,362.455 762.74,361.232 761.435,359.901C760.003,358.448 758.679,358.222 757.328,359.902C754.965,362.863 752.027,365.714 755.857,370.069M767.674,364.708C760.893,367.978 758.82,371.643 761.397,375.297C761.827,375.893 762.114,376.629 763.014,376.487C763.776,376.357 764.608,375.906 764.395,375.1C763.344,371.058 766.996,368.44 767.674,364.708M746.881,434.888C745.137,437.592 740.543,437.772 740.936,441.371C741.071,442.634 744.692,444.562 746.002,443.617C748.828,441.564 745.836,437.889 746.881,434.888M741.023,444.055C738.681,451.198 746.302,448.309 747.4,452.698C748.938,446.09 744.883,445.356 741.023,444.055M758.322,396.2C755.898,394.037 754.271,391.781 751.883,394.688C750.799,396.013 748.496,397.966 750.6,399.236C753.506,400.985 754.957,396.875 758.322,396.2" style="fill-rule:nonzero;"/>
    </g>
    <g transform="matrix(1,0,0,1,-6.46154,-445)">
        <g transform="matrix(1.26176,0,0,1.26176,-102.207,76.7897)">
            <path d="M264.911,487.464L264.761,425.484C264.911,411.174 261.931,405.214 252.991,398.664L226.321,421.014L228.711,425.784C237.501,420.264 241.071,423.244 241.221,432.334L241.221,493.574C241.221,506.694 246.441,515.484 252.991,519.504L277.581,499.534L274.151,494.914C267.151,499.984 264.761,495.214 264.911,487.464Z" style="fill-rule:nonzero;"/>
        </g>
        <g transform="matrix(1.26176,0,0,1.26176,-102.207,76.7897)">
            <path d="M322.431,503.415C323.321,510.415 328.241,519.505 333.151,519.505L354.901,501.705C357.821,509.515 362.851,516.035 369.611,519.505L394.041,503.565L394.041,507.585C372.881,522.035 355.151,539.475 360.071,551.985C364.541,562.115 389.571,551.985 403.281,534.555L417.731,517.265L417.581,458.715L427.421,451.415L425.781,446.345C418.331,448.875 412.071,445.155 406.561,441.725C401.941,438.595 397.171,436.955 390.611,436.955L369.461,450.365C353.971,460.395 349.451,479.895 353.191,496.045C347.151,499.615 344.931,494.575 345.071,487.315L344.921,464.075C344.481,440.085 325.851,436.955 308.421,436.955L280.261,457.225L283.241,461.845C294.411,454.985 312.441,453.945 319.001,464.375C298.881,470.185 284.131,479.125 281.751,494.625C280.261,505.205 288.151,519.355 300.371,519.505L322.431,503.415ZM394.041,534.554C389.871,538.724 385.551,537.384 383.311,534.404C381.081,529.484 386.741,521.294 394.041,514.584L394.041,534.554ZM375.861,454.244C384.511,455.584 394.041,460.494 394.041,470.634L394.041,496.114L387.631,500.434C374.371,492.834 368.711,468.544 375.861,454.244ZM321.231,471.375L321.381,495.665L312.001,501.775C301.121,495.665 302.011,478.384 321.231,471.375Z" style="fill-rule:nonzero;"/>
        </g>
        <g transform="matrix(1.26176,0,0,1.26176,-102.207,76.7897)">
            <path d="M427.171,464.074C435.961,458.414 439.391,461.394 439.681,470.484L439.681,493.724C439.541,506.694 444.601,515.334 451.311,519.504L475.891,499.684L472.461,495.064C465.461,499.984 463.081,495.214 463.231,487.614L463.081,463.474L463.081,461.244L463.971,460.354C470.231,454.534 475.741,464.224 479.921,471.224L492.211,461.014C503.432,454.914 520.24,454.384 526.531,464.374C506.411,470.184 491.661,479.124 489.281,494.624C487.791,505.204 495.681,519.354 507.9,519.504L529.951,503.414C530.851,510.414 535.761,519.504 540.681,519.504L565.271,499.384L561.99,495.214C554.99,500.284 552.451,495.064 552.601,487.314L552.451,464.074C552.011,440.084 533.381,436.954 515.951,436.954L496.49,450.964C492.57,445.604 485.041,436.954 477.23,436.954L462.03,451.554C460.54,445.304 457.12,441.274 451.31,436.954L424.64,459.304L427.171,464.074ZM528.911,495.665L519.521,501.775C508.65,495.665 509.541,478.385 528.76,471.375L528.911,495.665Z" style="fill-rule:nonzero;"/>
        </g>
        <g transform="matrix(1.26176,0,0,1.26176,-102.207,76.7897)">
            <path d="M573.932,470.924L573.932,493.724C573.932,506.834 579.001,515.484 585.702,519.504L610.141,499.534L606.711,494.914C599.711,499.984 597.331,495.214 597.481,487.614L597.481,483.744C604.332,470.334 606.862,464.824 611.481,465.264C616.551,465.864 615.211,474.804 615.362,478.234L615.362,493.724C615.212,506.834 620.422,515.484 626.981,519.504L651.561,499.534L648.141,494.914C641.131,499.984 638.75,495.214 638.901,487.614L638.751,463.624C638.901,449.324 635.772,436.804 626.981,436.954C616.401,436.954 607.011,449.924 597.332,466.604L597.332,463.624C597.481,449.324 594.502,443.514 585.702,436.954L558.882,459.304L561.722,464.374C570.511,458.864 573.641,461.694 573.932,470.924Z" style="fill-rule:nonzero;"/>
        </g>
        <g transform="matrix(1.26176,0,0,1.26176,-102.207,76.7897)">
            <path d="M707.021,441.424L707.021,436.954L685.72,436.954L685.72,430.104C685.861,415.654 682.89,409.694 673.941,403.134L646.98,425.484L649.66,430.404C658.601,424.734 661.881,427.574 662.172,436.954L657.701,436.954L643.551,449.474L643.551,454.394L662.172,454.394L662.172,493.424C662.172,506.834 667.24,515.484 673.942,519.504L681.512,513.604L689.25,507.574L689.271,507.554L690.371,506.694L694.191,503.714L705.091,495.214L701.659,490.444C699.46,492.134 693.77,494.044 691.94,494.734L691.94,494.744C688.049,494.814 685.78,492.024 685.86,487.464L685.719,454.394L694.809,454.394L707.021,441.424Z" style="fill-rule:nonzero;"/>
        </g>
        <g transform="matrix(1.26176,0,0,1.26176,-102.207,76.7897)">
            <path d="M363.001,602.834L362.861,579.584C362.411,555.594 343.781,552.464 326.351,552.464L298.191,572.734L301.171,577.354C312.341,570.494 330.371,569.454 336.931,579.884C316.811,585.694 302.061,594.634 299.681,610.134C298.191,620.714 306.091,634.864 318.301,635.014L340.361,618.924C341.251,625.924 346.171,635.014 351.081,635.014L375.671,614.894L372.391,610.724C365.391,615.794 362.861,610.574 363.001,602.834ZM329.931,617.284C319.051,611.174 319.941,593.894 339.161,586.884L339.311,611.174L329.931,617.284Z" style="fill-rule:nonzero;"/>
        </g>
        <g transform="matrix(1.26176,0,0,1.26176,-102.207,76.7897)">
            <path d="M405.591,575.864C411.851,570.044 417.371,579.734 421.541,586.734L440.911,570.644C440.911,570.644 430.181,552.464 418.861,552.464L403.661,567.064C402.171,560.814 398.741,556.784 392.931,552.464L366.261,574.814L368.791,579.584C377.581,573.924 381.011,576.904 381.311,585.994L381.311,609.234C381.161,622.204 386.221,630.844 392.931,635.014L417.511,615.194L414.091,610.574C407.081,615.494 404.701,610.724 404.851,603.124L404.701,578.984L404.701,576.754L405.591,575.864Z" style="fill-rule:nonzero;"/>
        </g>
        <g transform="matrix(1.26176,0,0,1.26176,-102.207,76.7897)">
            <path d="M502.141,602.974L502.141,540.844C502.442,526.694 499.311,520.734 490.371,514.174L463.551,536.374L466.081,541.144C475.021,535.774 478.451,538.614 478.602,547.844L478.602,552.464C471.602,553.654 463.852,556.934 455.352,562.744C442.392,571.394 432.412,586.444 432.412,601.344C432.412,615.644 438.522,626.524 455.352,635.014L478.752,612.364C479.491,623.694 484.262,631.284 490.372,635.014L515.102,615.044L511.682,610.424C504.671,615.494 502.141,610.724 502.141,602.974ZM478.602,602.974L466.682,614.304C454.612,605.514 446.122,580.624 458.192,571.534C465.042,567.214 473.092,567.814 478.603,574.224L478.603,602.974L478.602,602.974Z" style="fill-rule:nonzero;"/>
        </g>
        <g transform="matrix(1.26176,0,0,1.26176,-102.207,76.7897)">
            <path d="M650.912,605.237L650.758,580.248C650.912,565.348 647.651,552.311 638.494,552.466C627.474,552.466 617.696,565.969 607.607,583.352L607.607,580.248C607.763,565.348 604.659,559.295 595.502,552.466L572.024,572.03C571.838,571.616 571.644,571.201 571.431,570.784C566.92,561.924 556.521,552.464 547.91,552.464C536.139,552.464 517.819,572.884 513.94,579.284C503.509,598.064 523.919,634.564 540.759,635.014L572.35,610.874L569.219,606.104C557.6,613.704 548.809,611.324 542.249,604.764L569.35,582.294L571.799,580.262C579.968,575.602 582.944,578.699 583.238,587.853L583.238,611.6C583.238,625.258 588.515,634.26 595.5,638.451L620.954,617.653L617.385,612.841C610.089,618.118 607.606,613.151 607.762,605.236L607.762,601.2C614.901,587.231 617.539,581.489 622.352,581.954C627.627,582.576 626.231,591.888 626.385,595.458L626.385,611.6C626.231,625.258 631.664,634.26 638.492,638.451L664.101,617.653L660.531,612.841C653.238,618.119 650.758,613.152 650.912,605.237ZM538.682,597.614C532.272,587.484 527.801,573.924 533.911,569.454C539.721,565.574 548.81,577.794 551.341,586.884L538.682,597.614Z" style="fill-rule:nonzero;"/>
        </g>
    </g>
    <g transform="matrix(1.26176,0,0,1.26176,-108.669,-368.21)">
        <path d="M250.618,621.348C248.997,621.911 247.376,622.473 245.76,623.053C243.298,623.941 240.772,624.395 238.146,624.36C237.293,624.348 236.44,624.555 235.512,624.673C235.627,624.84 235.64,624.882 235.661,624.89C235.882,624.959 236.104,625.034 236.33,625.083C238.581,625.617 240.673,626.525 242.603,627.785C243.194,628.169 243.744,628.621 244.28,629.088C244.28,629.088 244.914,629.552 245.159,629.857L245.164,629.86C245.816,630.655 246.451,631.485 247.098,632.291C247.483,632.769 247.566,633.8 247.092,634.417C246.624,635.023 246.385,635.865 245.8,636.413C245.538,636.659 245.349,636.982 244.994,636.998C244.75,637.01 244.597,637.107 244.608,637.487C244.617,637.863 244.441,638.055 244.136,638.02C244.033,638.004 243.928,638.011 243.83,638.009C243.553,638.805 243.252,638.877 242.765,638.275C242.69,638.181 242.621,638.075 242.549,637.975C242.388,637.747 242.227,637.52 242.069,637.287C241.798,636.892 241.525,636.497 241.249,636.102C240.455,634.943 239.713,633.264 239.122,632.366C237.931,630.554 236.226,629.105 234.202,627.985C234.275,628.169 234.327,628.293 234.38,628.423C234.934,629.719 235.552,630.992 236.022,632.319C236.3,633.095 236.261,633.985 236.503,634.781C236.972,636.308 236.917,637.801 236.505,639.319C236.255,640.249 236.053,641.191 235.833,642.125C235.608,643.079 234.973,643.409 234.1,643.034C233.868,643.304 233.703,643.643 233.446,643.752C233.238,643.837 232.911,643.649 232.739,643.607C232.741,643.629 232.743,643.652 232.745,643.674C232.405,643.193 232.116,642.615 231.83,642.374C231.208,641.858 232.133,643.39 230.911,643.806C230.861,643.732 230.803,643.646 230.745,643.547C230.599,643.857 230.53,644.017 230.456,644.174C230.204,644.754 230.003,644.785 229.486,644.431C228.911,644.036 228.831,643.393 228.601,642.821C227.727,640.705 227.462,638.483 228.036,636.303C228.599,634.183 228.567,632.021 228.896,629.897C228.898,629.873 228.857,629.843 228.808,629.774C228.7,630.128 228.599,630.448 228.505,630.775C228.03,632.489 227.338,634.101 226.402,635.627C225.222,637.544 224.122,639.51 222.987,641.454C222.728,641.9 222.52,642.392 222.192,642.784C221.545,643.556 220.904,643.49 220.334,642.656C220.275,642.571 220.217,642.485 220.162,642.408C219.24,642.701 219.228,642.69 218.908,641.759C218.826,641.512 218.714,641.279 218.596,640.997C218.098,641.3 217.779,641.185 217.542,640.718C217.477,640.593 217.254,640.444 217.135,640.466C216.207,640.626 215.713,640.175 215.42,639.394C215.159,639.318 214.827,639.207 214.775,639.017C214.696,638.737 214.742,638.373 214.861,638.099C215.088,637.575 215.407,637.091 215.689,636.596C216.636,634.933 218.117,633.791 219.616,632.695C221.461,631.346 223.382,630.101 225.267,628.812C225.538,628.624 225.802,628.428 226.067,628.237C225.429,628.478 224.834,628.814 224.209,629.052C222.588,629.675 220.924,630.19 219.334,630.869C218.129,631.387 216.933,631.888 215.647,632.149C215.382,632.2 215.108,632.268 214.888,632.404C213.523,633.244 211.923,633.33 210.446,633.793C210.25,633.856 209.834,633.7 209.736,633.528C209.55,633.187 209.5,632.763 209.433,632.367C209.361,631.908 209.357,631.442 209.282,630.983C209.263,630.858 209.129,630.702 209.005,630.65C208.61,630.483 208.571,630.21 208.7,629.863C208.817,629.548 208.945,629.239 209.06,628.938C208.376,628.493 208.378,628.436 208.884,627.814C209.048,627.612 209.251,627.382 209.273,627.147C209.349,626.475 209.498,626.174 210.149,625.98C210.676,625.823 211.223,625.683 211.773,625.65C215.658,625.398 219.545,625.184 223.433,624.945C224.333,624.892 225.233,624.81 226.133,624.743C226.147,624.664 226.165,624.584 226.184,624.504C226.046,624.433 225.905,624.307 225.768,624.301C224.628,624.266 223.484,624.267 222.342,624.225C221.203,624.181 220.046,624.213 218.935,624.012C217.411,623.738 215.916,623.282 214.414,622.884C213.968,622.765 213.525,622.612 213.107,622.414C212.01,621.895 210.933,621.339 209.84,620.806C209.196,620.494 208.745,619.512 209.145,618.706C209.535,617.917 209.559,616.991 210.123,616.206C210.373,615.855 210.509,615.464 210.951,615.301C211.258,615.187 211.417,615.031 211.283,614.66C211.146,614.294 211.302,614.033 211.701,613.946C211.837,613.916 211.971,613.866 212.099,613.828C212.182,612.931 212.539,612.735 213.358,613.131C213.485,613.196 213.61,613.272 213.733,613.341C214.014,613.5 214.295,613.659 214.572,613.82C216.448,614.928 218.357,615.962 220.047,617.386C221.693,618.777 223.493,620.001 225.237,621.28C225.523,621.489 225.876,621.608 226.199,621.768C226.234,621.729 226.269,621.691 226.306,621.657C226.269,621.533 226.267,621.384 226.19,621.3C225.928,620.986 225.655,620.679 225.357,620.4C223.863,618.991 222.366,617.588 220.863,616.192C220.262,615.638 219.627,615.117 219.018,614.566C218.478,614.083 217.893,613.626 217.43,613.073C216.739,612.261 216.126,611.379 215.494,610.511C215.274,610.212 215.062,609.893 214.927,609.55C214.688,608.949 214.932,608.469 215.567,608.327C215.944,608.244 216.342,608.265 216.734,608.26C217.167,608.258 217.435,608.089 217.555,607.647C217.605,607.44 217.737,607.209 217.904,607.094C218.459,606.714 218.918,606.311 218.934,605.569C218.94,605.432 219.189,605.184 219.303,605.193C219.738,605.241 220.267,605.247 220.574,605.496C221.758,606.446 222.939,607.448 223.633,608.833C224.378,610.316 225.047,611.84 225.672,613.376C226.456,615.3 227.271,617.205 228.44,618.934C228.53,619.062 228.636,619.184 228.732,619.305C228.591,618.436 228.37,617.619 228.106,616.825C227.516,615.082 226.824,613.369 226.324,611.598C225.548,608.869 225.752,606.071 225.977,603.286C225.995,603.062 226.074,602.828 226.167,602.622C226.301,602.335 226.525,602.292 226.779,602.483C226.886,602.562 226.974,602.667 227.035,602.733C227.218,602.449 227.375,602.197 227.538,601.943L227.95,601.82C228.513,602.175 229.08,602.525 229.632,602.874C230.027,602.602 230.027,602.602 230.988,603.053C231.302,602.791 231.64,602.326 232.066,602.737C232.514,603.174 233.018,603.691 233.173,604.261C233.551,605.638 233.701,607.069 233.459,608.51C233.353,609.125 233.306,609.751 233.229,610.372C232.988,612.353 232.743,614.336 232.512,616.319C232.437,616.962 232.406,617.607 232.356,618.253C232.49,618.204 232.533,618.145 232.551,618.078C233.099,615.968 233.737,613.877 234.165,611.742C234.679,609.184 235.285,606.678 236.574,604.388C236.747,604.075 237.025,603.801 237.306,603.568C237.554,603.367 237.867,603.396 238.064,603.683C238.289,604.013 238.466,604.375 238.671,604.735C239.363,604.486 239.414,604.514 239.821,605.209C239.885,605.315 240.051,605.435 240.167,605.432C240.994,605.415 241.023,605.439 241.306,606.228C241.347,606.351 241.484,606.497 241.604,606.522C242.146,606.646 242.36,607.021 242.45,607.512C242.491,607.757 242.447,608.05 242.566,608.243C243.082,609.084 242.788,609.821 242.359,610.561C241.672,611.732 241.013,612.923 240.28,614.07C239.067,615.968 237.709,617.759 236.102,619.354C235.706,619.748 235.388,620.216 235.032,620.649C235.556,620.292 235.985,619.837 236.497,619.516C238.21,618.45 239.953,617.432 241.685,616.401C243.292,615.446 245.065,614.955 246.89,614.673C247.988,614.5 248.185,614.801 247.965,615.912C247.959,615.938 247.988,615.971 248.001,616C248.975,616.434 249.152,616.73 249.025,617.712C250.077,618.155 250.906,618.823 251.355,619.861C251.707,620.678 251.473,621.052 250.618,621.348Z" style="fill-rule:nonzero;"/>
    </g>
</svg>
