<?xml version="1.0" standalone="no"?>
<!DOCTYPE svg PUBLIC "-//W3C//DTD SVG 20010904//EN"
 "http://www.w3.org/TR/2001/REC-SVG-20010904/DTD/svg10.dtd">
<svg version="1.0" xmlns="http://www.w3.org/2000/svg"
 width="700.000000pt" height="700.000000pt" viewBox="0 0 700.000000 700.000000"
 preserveAspectRatio="xMidYMid meet">
<metadata>
Created by potrace 1.14, written by Peter Selinger 2001-2017
</metadata>
<g transform="translate(0.000000,700.000000) scale(0.100000,-0.100000)"
fill="#000000" stroke="none">
<path d="M3204 6103 c-34 -10 -56 -23 -64 -38 -10 -19 -18 -22 -49 -18 -69 8
-131 -58 -146 -158 -14 -92 -29 -346 -29 -489 1 -102 13 -290 21 -302 2 -5 -7
-8 -22 -8 -22 0 -30 10 -62 78 -73 157 -175 287 -323 412 -36 30 -71 61 -79
68 -37 35 -131 64 -211 64 -64 1 -115 -45 -134 -121 -12 -46 -23 -62 -74 -107
-36 -32 -66 -69 -76 -94 l-16 -40 -68 0 c-89 0 -157 -21 -199 -62 -61 -59 -65
-139 -14 -241 36 -73 254 -369 319 -434 12 -12 12 -17 -2 -38 -19 -28 -33 -31
-61 -11 -11 7 -40 24 -65 38 -25 14 -97 56 -160 93 -136 80 -199 105 -255 99
-50 -5 -83 -29 -113 -81 -13 -24 -35 -46 -52 -53 -37 -15 -72 -70 -74 -114 -1
-25 -12 -44 -46 -77 -67 -66 -112 -153 -170 -327 -46 -138 -51 -163 -46 -214
6 -64 30 -117 75 -166 20 -22 109 -71 273 -152 252 -124 316 -147 631 -226
124 -31 140 -50 45 -53 -35 -2 -83 -4 -108 -6 -81 -5 -243 -15 -340 -20 -209
-12 -262 -19 -367 -51 -110 -33 -165 -90 -175 -181 -2 -18 -14 -44 -27 -59
-65 -75 -81 -142 -45 -191 18 -25 19 -32 8 -68 -26 -84 -8 -166 44 -194 14 -8
21 -30 30 -103 23 -188 41 -232 104 -268 54 -30 91 -29 248 9 197 47 292 78
384 121 44 22 92 41 106 44 94 16 247 69 465 161 61 25 106 42 100 37 -5 -5
-59 -44 -120 -87 -331 -237 -455 -370 -600 -638 -77 -142 -74 -249 9 -297 17
-11 46 -39 63 -64 39 -55 103 -93 170 -102 40 -5 60 -14 87 -39 23 -21 50 -36
76 -40 22 -4 40 -12 40 -18 0 -27 50 -117 74 -132 16 -10 45 -17 76 -17 27 1
50 -3 50 -7 0 -17 76 -66 120 -77 98 -25 191 42 281 204 62 112 51 92 153 270
89 153 315 535 322 541 14 15 13 -20 -5 -106 -27 -132 -34 -194 -33 -285 3
-203 32 -327 145 -618 39 -100 141 -177 220 -167 41 6 92 45 103 79 3 10 20
24 37 32 18 7 44 25 58 40 l26 26 19 -21 c22 -24 76 -48 119 -53 37 -5 82 13
115 46 19 18 35 24 65 23 75 -3 148 43 186 117 15 30 41 123 64 228 2 8 17 71
34 140 44 180 50 231 46 365 l-3 120 38 60 c21 33 49 81 64 106 25 44 72 97
79 88 2 -2 11 -17 19 -34 84 -169 195 -348 345 -555 28 -39 66 -76 90 -89 50
-26 137 0 163 48 6 12 19 21 30 21 28 0 77 46 90 86 7 20 23 40 39 48 57 30
138 127 198 236 16 30 41 73 54 95 40 64 53 117 46 189 -8 87 -22 117 -103
218 -38 48 -98 123 -134 168 -35 44 -82 95 -104 113 -22 18 -71 59 -110 91
-87 73 -237 171 -336 221 -74 37 -120 70 -120 87 0 5 -12 20 -27 34 -14 13
-24 26 -22 28 4 3 43 9 159 22 62 7 223 39 317 63 80 21 207 63 513 171 96 34
202 70 235 81 167 57 216 103 218 203 2 97 -81 231 -199 324 -23 17 -46 32
-51 32 -17 0 -39 34 -41 61 -3 46 -30 95 -74 131 -38 31 -44 41 -45 76 -1 56
-20 95 -60 122 -51 35 -125 34 -310 -5 -13 -3 -34 -7 -46 -10 -162 -34 -356
-116 -551 -233 -65 -40 -121 -72 -123 -72 -3 0 -19 -10 -36 -22 -36 -26 -32
-18 38 77 152 207 432 676 460 770 20 68 15 160 -10 199 -8 13 -18 47 -21 77
-6 54 -33 120 -62 148 -8 9 -31 25 -50 37 -19 12 -44 40 -56 65 -24 49 -87 89
-132 84 -18 -2 -32 7 -55 37 -36 44 -74 67 -106 62 -18 -3 -30 7 -59 50 -76
115 -176 114 -282 -3 -61 -65 -198 -373 -242 -538 -13 -51 -23 -57 -14 -10 14
80 6 242 -17 367 -26 138 -49 187 -128 279 -77 90 -141 114 -209 79 -23 -12
-46 -17 -62 -13 -14 4 -47 8 -75 10 -27 2 -52 4 -56 4 -3 1 -44 26 -92 56 -47
30 -90 55 -94 54 -5 0 -31 -7 -59 -16z m-204 -1164 c41 -6 82 -13 90 -14 44
-9 168 -37 265 -59 214 -50 330 -53 428 -11 17 7 17 6 -1 -26 -20 -37 -39
-107 -66 -240 -23 -113 -138 -162 -321 -135 -106 15 -204 52 -433 163 -193 92
-256 114 -349 119 -184 8 -316 -104 -322 -276 -1 -31 4 -71 13 -90 16 -40 59
-86 87 -95 39 -13 17 -29 -90 -66 -71 -25 -134 -24 -181 2 -39 22 -89 89 -91
124 -8 104 35 158 254 325 73 55 152 118 177 140 159 142 289 176 540 139z
m-228 -384 c-21 -66 -9 -138 36 -215 33 -56 174 -206 245 -261 l28 -21 37 39
c59 61 106 93 176 117 106 37 200 22 269 -42 38 -36 35 -72 -15 -151 -23 -36
-51 -89 -63 -118 l-21 -53 -42 63 c-111 167 -207 217 -284 148 l-32 -29 54
-48 c84 -77 138 -134 178 -194 33 -49 37 -62 37 -120 0 -36 -4 -75 -8 -87 -6
-18 14 -8 96 47 58 39 107 70 111 70 3 0 31 17 63 37 l58 37 -20 -30 c-41 -63
-50 -89 -49 -155 1 -36 6 -75 12 -85 11 -18 11 -18 12 -1 0 33 91 196 137 248
74 82 144 107 243 86 25 -5 109 -41 188 -79 131 -65 149 -71 205 -71 34 0 73
6 87 13 24 13 24 12 10 -7 -8 -11 -39 -56 -69 -99 -118 -173 -171 -214 -273
-215 -67 -1 -121 22 -237 101 -101 69 -144 81 -188 55 -33 -20 -93 -102 -95
-131 -1 -10 9 -71 22 -134 27 -137 24 -214 -12 -291 -44 -94 -153 -196 -275
-258 -24 -12 -43 -26 -43 -32 0 -18 58 -97 108 -146 93 -92 243 -170 402 -209
80 -19 280 -26 354 -11 56 11 127 44 158 74 58 55 84 168 59 258 -31 116 -159
238 -312 297 -59 23 -75 38 -41 38 45 0 142 61 237 148 81 75 134 93 211 72
132 -37 179 -223 118 -465 -16 -61 -32 -103 -64 -165 -44 -85 -65 -119 -118
-188 -32 -41 -70 -95 -87 -120 -16 -26 -48 -77 -72 -113 -56 -88 -115 -146
-177 -175 -48 -23 -59 -24 -196 -19 -80 2 -158 7 -175 10 -211 39 -333 87
-450 175 -125 93 -210 202 -286 365 -103 225 -111 406 -24 610 l17 40 -26 -27
c-47 -46 -94 -63 -176 -63 -94 0 -130 17 -294 138 -188 139 -256 163 -329 113
l-35 -24 14 51 c71 246 204 324 386 229 40 -21 132 -80 203 -132 72 -52 154
-104 184 -116 86 -35 157 -17 189 47 46 93 -13 173 -374 505 -112 103 -166
169 -219 266 -66 123 -61 203 16 276 35 33 219 170 230 171 4 1 0 -19 -9 -44z"/>
<path d="M3348 3448 c-38 -58 -86 -186 -96 -258 -7 -51 -7 -191 1 -235 9 -49
35 -137 52 -178 19 -46 29 -41 67 30 37 68 39 106 11 234 -13 63 -28 139 -33
169 -10 72 -5 203 10 230 16 30 6 36 -12 8z"/>
</g>
</svg>
